<svg width="2255" height="882" viewBox="0 0 2255 882" fill="none" xmlns="http://www.w3.org/2000/svg">
<path d="M557.896 881.526L559.58 878.254C536.993 865.423 508.882 849.455 494.199 823.251C479.725 797.419 479.4 762.341 493.351 731.706C505.224 705.634 527.034 682.275 556.422 664.155C562.219 660.581 568.304 657.193 574.188 653.917C588.413 645.999 603.122 637.811 615.25 626.194C631.954 610.194 644.593 583.344 635.173 559.427C632.075 551.794 627.001 545.226 620.528 540.468C614.054 535.711 606.441 532.956 598.551 532.515L598.352 536.23C605.579 536.632 612.555 539.155 618.486 543.511C624.418 547.867 629.068 553.882 631.91 560.874C640.664 583.099 628.653 608.32 612.863 623.445C601.067 634.744 586.559 642.82 572.53 650.63C566.612 653.924 560.491 657.331 554.628 660.947C524.629 679.444 502.334 703.356 490.156 730.1C475.703 761.837 476.082 798.254 491.146 825.139C506.329 852.235 534.921 868.477 557.896 881.526Z" fill="#FAC722"/>
<path d="M576.101 552.124C558.983 552.124 545.107 545.045 545.107 536.312C545.107 527.579 558.983 520.5 576.101 520.5C593.219 520.5 607.095 527.579 607.095 536.312C607.095 545.045 593.219 552.124 576.101 552.124Z" fill="#FAC722"/>
<path d="M551.306 656.299C534.188 656.299 520.312 649.219 520.312 640.487C520.312 631.754 534.188 624.674 551.306 624.674C568.424 624.674 582.3 631.754 582.3 640.487C582.3 649.219 568.424 656.299 551.306 656.299Z" fill="#FAC722"/>
<path d="M607.981 673.041C590.863 673.041 576.987 665.962 576.987 657.229C576.987 648.496 590.863 641.417 607.981 641.417C625.099 641.417 638.975 648.496 638.975 657.229C638.975 665.962 625.099 673.041 607.981 673.041Z" fill="#FAC722"/>
<path d="M519.426 760.472C502.308 760.472 488.432 753.393 488.432 744.66C488.432 735.927 502.308 728.848 519.426 728.848C536.544 728.848 550.42 735.927 550.42 744.66C550.42 753.393 536.544 760.472 519.426 760.472Z" fill="#FAC722"/>
<path d="M457.437 760.472C440.32 760.472 426.443 753.393 426.443 744.66C426.443 735.927 440.32 728.848 457.437 728.848C474.555 728.848 488.432 735.927 488.432 744.66C488.432 753.393 474.555 760.472 457.437 760.472Z" fill="#FAC722"/>
<path d="M1.77109 882H676.558C677.027 882 677.478 881.804 677.81 881.455C678.142 881.106 678.329 880.633 678.329 880.14C678.329 879.646 678.142 879.173 677.81 878.824C677.478 878.475 677.027 878.279 676.558 878.279H1.77109C1.30137 878.279 0.850802 878.475 0.518657 878.824C0.186513 879.173 -1.50206e-06 879.646 -1.50206e-06 880.14C-1.50206e-06 880.633 0.186513 881.106 0.518657 881.455C0.850802 881.804 1.30137 882 1.77109 882Z" fill="#CACACA"/>
<path d="M160.744 859.196L183.546 859.194L194.393 771.226L160.74 771.228L160.744 859.196Z" fill="#FAC722"/>
<path d="M154.928 851.749L199.833 851.747H199.835C207.424 851.747 214.703 854.763 220.069 860.131C225.436 865.498 228.451 872.778 228.452 880.369V881.299L154.93 881.302L154.928 851.749Z" fill="#2F2E41"/>
<path d="M246.299 859.196L269.101 859.194L279.947 771.226L246.295 771.228L246.299 859.196Z" fill="#FAC722"/>
<path d="M240.482 851.749L285.387 851.747H285.389C292.978 851.747 300.257 854.763 305.623 860.131C310.99 865.498 314.005 872.778 314.006 880.369V881.299L240.484 881.302L240.482 851.749Z" fill="#2F2E41"/>
<path d="M91.5582 511.592C93.4243 509.594 94.8296 507.21 95.6751 504.609C96.5206 502.009 96.7858 499.254 96.4518 496.54C96.1179 493.826 95.193 491.218 93.7423 488.899C92.2916 486.581 90.3504 484.61 88.0555 483.123L103.898 418.563L71.3647 430.158L61.3079 489.688C59.0668 493.709 58.3784 498.414 59.3733 502.909C60.3681 507.405 62.9771 511.379 66.7058 514.079C70.4346 516.779 75.024 518.017 79.6044 517.559C84.1848 517.101 88.4381 514.978 91.5582 511.592V511.592Z" fill="#FDA57D"/>
<path d="M333.603 506.012C331.737 504.013 330.331 501.629 329.486 499.029C328.64 496.428 328.375 493.673 328.709 490.959C329.043 488.245 329.968 485.637 331.419 483.319C332.869 481.001 334.811 479.029 337.106 477.543L321.263 412.983L353.796 424.578L363.853 484.107C366.094 488.129 366.783 492.833 365.788 497.329C364.793 501.824 362.184 505.798 358.455 508.498C354.726 511.198 350.137 512.437 345.557 511.978C340.976 511.52 336.723 509.397 333.603 506.012V506.012Z" fill="#FDA57D"/>
<path d="M121.559 466.338L153.164 836.65L199.407 832.432L217.915 546.232L234.389 659.555L237.689 839.565L279.536 836.774L302.773 643.122L297.072 455.577L138.208 439.485L121.559 466.338Z" fill="#2F2E41"/>
<path d="M158.593 145.748H243.053L302.773 461.201C302.773 461.201 250.708 465.654 220.95 476.815C191.192 487.977 141.723 451.319 141.723 451.319L158.593 145.748Z" fill="#1686E2"/>
<path d="M169.138 181.372V145.748L159.575 145.69L89.7054 190.122L104.866 433.56C104.866 433.56 122.81 514.775 150.027 513.933C177.244 513.09 198.229 223.564 169.138 181.372Z" fill="#2F2E41"/>
<path d="M112.148 196.847L89.7047 190.123C89.7047 190.123 73.0904 194.987 73.0904 211.729C73.0904 228.472 58.7753 466.339 58.7753 466.339L104.25 470.359L114.007 349.388L112.148 196.847Z" fill="#2F2E41"/>
<path d="M236.758 168.944L232.285 145.749L245.128 143.83L291.624 162.433C291.624 162.433 333.471 468.445 314.873 477.746C296.274 487.047 283.716 479.841 283.716 479.841C283.716 479.841 222.543 254.143 233.37 223.635L236.758 168.944Z" fill="#2F2E41"/>
<path d="M259.077 167.082L267.013 163.628C267.013 163.628 290.304 152.084 303.518 175.395C316.733 198.707 363.23 459.142 363.23 459.142L324.972 466.338L296.37 372.611L259.077 167.082Z" fill="#2F2E41"/>
<path d="M208.498 129.362C234.985 129.362 256.456 107.886 256.456 81.3943C256.456 54.9023 234.985 33.4263 208.498 33.4263C182.012 33.4263 160.54 54.9023 160.54 81.3943C160.54 107.886 182.012 129.362 208.498 129.362Z" fill="#FDA57D"/>
<path d="M193.311 43.0196C193.311 43.0196 215.692 49.0156 227.282 51.414C238.871 53.8125 237.673 47.0169 237.673 47.0169C237.673 47.0169 252.859 49.0156 252.06 47.4166C251.261 45.8177 258.454 37.4233 250.062 27.8297C241.669 18.236 244.067 11.0409 244.067 11.0409H236.873L234.875 8.24274H223.685C223.685 8.24274 211.313 -2.60813 189.332 0.589652C167.351 3.78743 141.357 12.2401 138.959 25.4313C138.634 27.2205 138.205 29.2083 137.708 31.3078C131.698 56.6885 144.469 80.4359 157.714 102.904C160.97 108.425 176.716 120.466 176.313 112.205C175.91 103.944 162.138 85.3914 171.73 84.1921C181.322 82.9929 197.708 58.6092 193.311 43.0196Z" fill="#72351C"/>
<path d="M231.672 113.089L236.484 121.51C221.245 130.797 207.633 131.187 193.82 127.199L190.976 101.6L171.066 81.6903L179.599 63.2026C179.407 75.4069 185.287 87.3789 196.665 100.178C206.314 111.033 210.22 113.025 231.672 113.089L230.796 111.555L235.191 107.289H249.283L245.017 112.977C239.917 113.05 235.513 113.1 231.672 113.089Z" fill="#72351C"/>
<path d="M2254.07 19.519H1638V355H2254.07V19.519Z" fill="#CCCCCC"/>
<path d="M2229.67 47.5771H1658.74V328.161H2229.67V47.5771Z" fill="white"/>
<path d="M2254.07 0H1638V29.2784H2254.07V0Z" fill="#1686E2"/>
<path d="M1660.75 19.4602C1663.89 19.4602 1666.44 16.914 1666.44 13.7731C1666.44 10.6321 1663.89 8.08594 1660.75 8.08594C1657.61 8.08594 1655.06 10.6321 1655.06 13.7731C1655.06 16.914 1657.61 19.4602 1660.75 19.4602Z" fill="#FAC722"/>
<path d="M1681.22 19.4602C1684.36 19.4602 1686.91 16.914 1686.91 13.7731C1686.91 10.6321 1684.36 8.08594 1681.22 8.08594C1678.08 8.08594 1675.53 10.6321 1675.53 13.7731C1675.53 16.914 1678.08 19.4602 1681.22 19.4602Z" fill="white"/>
<path d="M1702.83 19.4602C1705.97 19.4602 1708.52 16.914 1708.52 13.7731C1708.52 10.6321 1705.97 8.08594 1702.83 8.08594C1699.69 8.08594 1697.15 10.6321 1697.15 13.7731C1697.15 16.914 1699.69 19.4602 1702.83 19.4602Z" fill="white"/>
<path d="M1956.88 115.004C1956.17 115.004 1955.49 115.244 1954.99 115.67C1954.49 116.097 1954.2 116.675 1954.2 117.279C1954.2 117.882 1954.49 118.461 1954.99 118.887C1955.49 119.314 1956.17 119.554 1956.88 119.554H2103.94C2104.65 119.554 2105.33 119.314 2105.83 118.887C2106.34 118.461 2106.62 117.882 2106.62 117.279C2106.62 116.675 2106.34 116.097 2105.83 115.67C2105.33 115.244 2104.65 115.004 2103.94 115.004H1956.88Z" fill="#E6E6E6"/>
<path d="M1956.89 130.928C1956.18 130.929 1955.49 131.23 1954.99 131.763C1954.49 132.296 1954.2 133.018 1954.2 133.771C1954.2 134.524 1954.49 135.247 1954.99 135.78C1955.49 136.313 1956.18 136.613 1956.89 136.615H2032.28C2032.99 136.613 2033.67 136.313 2034.17 135.78C2034.68 135.247 2034.96 134.524 2034.96 133.771C2034.96 133.018 2034.68 132.296 2034.17 131.763C2033.67 131.23 2032.99 130.929 2032.28 130.928H1956.89Z" fill="#E6E6E6"/>
<path d="M1951 209.828C1950.49 209.828 1950 210.085 1949.64 210.543C1949.28 211 1949.08 211.621 1949.08 212.268C1949.08 212.915 1949.28 213.536 1949.64 213.993C1950 214.451 1950.49 214.708 1951 214.708H2148.45C2148.96 214.708 2149.45 214.451 2149.81 213.993C2150.17 213.536 2150.37 212.915 2150.37 212.268C2150.37 211.621 2150.17 211 2149.81 210.543C2149.45 210.085 2148.96 209.828 2148.45 209.828H1951Z" fill="#FAC722"/>
<path d="M1950.99 225.688C1950.48 225.689 1950 225.882 1949.64 226.225C1949.28 226.568 1949.08 227.033 1949.08 227.517C1949.08 228.002 1949.28 228.467 1949.64 228.81C1950 229.153 1950.48 229.346 1950.99 229.347H2096.01C2096.52 229.346 2097 229.153 2097.36 228.81C2097.71 228.467 2097.91 228.002 2097.91 227.517C2097.91 227.033 2097.71 226.568 2097.36 226.225C2097 225.882 2096.52 225.689 2096.01 225.688H1950.99Z" fill="#E6E6E6"/>
<path d="M1951 242.766C1950.49 242.767 1950 242.96 1949.64 243.303C1949.28 243.647 1949.08 244.111 1949.08 244.596C1949.08 245.081 1949.28 245.545 1949.64 245.889C1950 246.232 1950.49 246.425 1951 246.426H2148.46C2148.96 246.425 2149.45 246.232 2149.81 245.889C2150.17 245.545 2150.37 245.081 2150.37 244.596C2150.37 244.111 2150.17 243.647 2149.81 243.303C2149.45 242.96 2148.96 242.767 2148.46 242.766H1951Z" fill="#E6E6E6"/>
<path d="M1950.99 257.405C1950.48 257.407 1950 257.664 1949.64 258.122C1949.28 258.579 1949.08 259.199 1949.08 259.845C1949.08 260.491 1949.28 261.111 1949.64 261.569C1950 262.026 1950.48 262.284 1950.99 262.285H2096.01C2096.52 262.284 2097 262.026 2097.36 261.569C2097.71 261.111 2097.91 260.491 2097.91 259.845C2097.91 259.199 2097.71 258.579 2097.36 258.122C2097 257.664 2096.52 257.407 2096.01 257.405H1950.99Z" fill="#E6E6E6"/>
<path d="M1793.65 272.814C1789.11 272.445 1784.6 271.693 1780.18 270.567L1780.43 265.8L1782.49 227.899L1782.51 227.608H1823.98L1830.48 262.506L1831.36 267.215C1829.64 267.893 1827.91 268.532 1826.13 269.094C1826.11 269.094 1826.11 269.113 1826.1 269.113C1823.63 269.888 1821.13 270.567 1818.61 271.129C1815.26 271.862 1811.87 272.393 1808.46 272.717C1805.82 272.983 1803.17 273.113 1800.52 273.105C1798.23 273.105 1795.92 273.008 1793.65 272.814Z" fill="#1686E2"/>
<path d="M1767.99 266.322C1766.25 265.562 1764.57 264.743 1762.91 263.885L1762.19 263.515C1761.71 263.261 1761.21 262.988 1760.73 262.715C1760.07 262.345 1759.43 261.975 1758.81 261.604C1758.21 261.254 1757.6 260.883 1757 260.513C1756.96 260.493 1756.94 260.474 1756.9 260.474C1754.82 259.129 1752.77 257.745 1750.8 256.244C1750.47 255.99 1750.14 255.737 1749.81 255.484L1749.47 249.87L1749.97 249.558L1783.67 227.92L1784.13 227.628L1784.17 227.608L1788.92 227.628V245.484C1791.6 249.402 1793.42 257.608 1794.54 268.349C1794.69 269.889 1794.83 271.468 1794.96 273.105C1790.37 272.734 1785.81 271.978 1781.33 270.844C1780.85 270.747 1780.38 270.63 1779.9 270.493C1777.09 269.75 1774.32 268.852 1771.6 267.803C1770.77 267.491 1769.96 267.16 1769.15 266.829L1769.07 266.79C1768.72 266.634 1768.33 266.478 1767.99 266.322Z" fill="#2F2E41"/>
<path d="M1759.7 262.869C1759.11 262.475 1758.54 262.082 1757.98 261.688C1757.44 261.315 1756.88 260.922 1756.34 260.528C1756.31 260.508 1756.29 260.487 1756.26 260.487C1754.38 259.058 1752.53 257.587 1750.76 255.993C1750.46 255.723 1750.16 255.454 1749.87 255.185C1749.73 255.04 1749.59 254.916 1749.43 254.771C1748.32 253.756 1747.24 252.699 1746.19 251.581C1746.14 251.539 1746.11 251.477 1746.06 251.436C1747.11 250.471 1748.29 249.722 1749.56 249.22L1750.79 249.655L1759.6 252.803L1759.65 257.049L1759.7 262.869Z" fill="#2F2E41"/>
<path d="M1841.34 263.405C1840.76 263.715 1840.19 264.024 1839.62 264.314C1839.49 264.391 1839.37 264.449 1839.26 264.507C1838.5 264.894 1837.75 265.28 1836.99 265.647C1836.97 265.667 1836.93 265.667 1836.93 265.686C1836.9 265.706 1836.84 265.725 1836.8 265.744C1835.09 266.575 1833.35 267.348 1831.58 268.064C1829.87 268.74 1828.13 269.378 1826.36 269.938C1826.34 269.938 1826.34 269.958 1826.32 269.958C1823.86 270.731 1821.37 271.407 1818.85 271.968C1818.82 270.38 1819.03 268.797 1819.46 267.271L1819.48 267L1821.12 240.095L1818.93 228.556L1825.22 227.608L1859.8 246.493C1859.8 246.493 1855.99 250.358 1840.34 258.592C1838.96 259.321 1840.99 261.743 1841.34 263.405Z" fill="#2F2E41"/>
<path d="M1808.68 268.153C1806.22 268.382 1803.73 268.496 1801.23 268.496C1798.81 268.496 1796.41 268.401 1794 268.172C1794.15 269.677 1794.29 271.22 1794.42 272.82C1796.67 273.01 1798.96 273.106 1801.23 273.106C1803.86 273.113 1806.48 272.986 1809.1 272.725C1812.48 272.406 1815.84 271.884 1819.16 271.163C1819.13 269.598 1819.34 268.038 1819.77 266.534L1819.79 266.268C1816.13 267.163 1812.42 267.793 1808.68 268.153ZM1880.17 161.265C1876.17 149.704 1869.72 139.16 1861.26 130.368C1852.79 121.576 1842.53 114.748 1831.18 110.36C1819.83 105.972 1807.67 104.13 1795.54 104.962C1783.41 105.794 1771.6 109.28 1760.95 115.177C1750.29 121.074 1741.04 129.24 1733.85 139.106C1726.65 148.972 1721.67 160.3 1719.27 172.3C1716.87 184.3 1717.09 196.684 1719.93 208.588C1722.77 220.491 1728.15 231.628 1735.7 241.222C1736.46 242.174 1737.24 243.127 1738.03 244.041C1738.11 244.117 1738.14 244.174 1738.2 244.231C1740.15 246.499 1742.23 248.655 1744.42 250.688C1744.95 251.183 1745.5 251.678 1746.05 252.155C1746.11 252.193 1746.14 252.25 1746.2 252.288C1747.34 253.316 1748.51 254.288 1749.72 255.221C1749.89 255.354 1750.04 255.469 1750.19 255.602C1750.51 255.85 1750.84 256.097 1751.16 256.345C1753.09 257.811 1755.09 259.164 1757.14 260.478C1757.17 260.478 1757.19 260.497 1757.23 260.516C1757.82 260.878 1758.42 261.239 1759.01 261.582C1759.61 261.944 1760.24 262.306 1760.88 262.668C1761.35 262.935 1761.84 263.201 1762.32 263.449L1763.02 263.811C1764.64 264.649 1766.29 265.449 1767.99 266.192C1768.33 266.344 1768.71 266.496 1769.05 266.649L1769.13 266.687C1769.92 267.011 1770.72 267.334 1771.53 267.639C1774.19 268.664 1776.91 269.541 1779.66 270.268C1780.14 270.401 1780.59 270.515 1781.06 270.61C1785.45 271.718 1789.91 272.457 1794.42 272.82C1796.67 273.01 1798.96 273.105 1801.23 273.105C1803.86 273.113 1806.48 272.986 1809.1 272.724C1812.48 272.405 1815.84 271.884 1819.16 271.163C1821.66 270.61 1824.14 269.944 1826.58 269.182C1826.6 269.182 1826.6 269.163 1826.62 269.163C1828.37 268.611 1830.1 267.982 1831.8 267.315C1833.56 266.611 1835.28 265.849 1836.98 265.03C1837.02 265.011 1837.08 264.992 1837.11 264.973C1837.11 264.954 1837.15 264.954 1837.17 264.935C1837.93 264.573 1838.66 264.192 1839.42 263.811C1839.54 263.754 1839.65 263.697 1839.78 263.62C1840.35 263.335 1840.92 263.03 1841.48 262.725C1841.52 262.706 1841.54 262.687 1841.58 262.668C1843.07 261.83 1844.55 260.954 1846 260.021C1846.4 259.773 1846.8 259.526 1847.2 259.24C1847.78 258.878 1848.35 258.478 1848.9 258.078C1849.64 257.564 1850.37 257.03 1851.09 256.478C1851.33 256.324 1851.56 256.152 1851.77 255.964C1853.53 254.631 1855.24 253.221 1856.86 251.735C1869.2 240.668 1878 226.164 1882.15 210.06C1886.29 193.956 1885.61 176.975 1880.17 161.265L1880.17 161.265ZM1855.44 246.822C1853.4 248.761 1851.25 250.592 1849.01 252.307C1848.52 252.688 1848.01 253.069 1847.5 253.412C1847.01 253.793 1846.52 254.154 1846 254.497C1845.57 254.802 1845.13 255.107 1844.68 255.392C1844.64 255.43 1844.59 255.45 1844.55 255.488C1844.23 255.716 1843.89 255.926 1843.56 256.135C1842.56 256.764 1841.52 257.392 1840.5 257.983C1840.25 258.116 1840.03 258.268 1839.78 258.402C1839.65 258.478 1839.52 258.554 1839.36 258.63C1838.8 258.954 1838.23 259.24 1837.66 259.545C1837.59 259.602 1837.49 259.621 1837.42 259.678C1837.39 259.682 1837.36 259.696 1837.34 259.716C1836.94 259.925 1836.55 260.116 1836.15 260.306C1835.81 260.478 1835.49 260.649 1835.15 260.801C1833.77 261.468 1832.35 262.097 1830.93 262.687C1829.43 263.297 1827.92 263.849 1826.39 264.363C1826.01 264.496 1825.61 264.649 1825.21 264.763C1823.42 265.335 1821.62 265.849 1819.79 266.268C1816.13 267.163 1812.42 267.793 1808.68 268.153C1806.22 268.382 1803.73 268.496 1801.23 268.496C1798.81 268.496 1796.41 268.401 1794 268.172C1789.72 267.778 1785.47 267.026 1781.31 265.925C1781.16 265.887 1780.99 265.849 1780.84 265.811C1777.42 264.914 1774.08 263.769 1770.83 262.382C1770.66 262.306 1770.47 262.249 1770.32 262.173C1770.13 262.097 1769.96 262.04 1769.81 261.963C1769.62 261.887 1769.45 261.811 1769.28 261.735C1767.86 261.106 1766.48 260.421 1765.1 259.716L1764.46 259.373C1763.23 258.725 1762.02 258.059 1760.82 257.316C1760.41 257.087 1759.97 256.821 1759.56 256.554C1759.08 256.268 1758.61 255.964 1758.16 255.659C1758.04 255.583 1757.93 255.507 1757.82 255.43C1756.76 254.707 1755.68 253.983 1754.66 253.202C1753.94 252.669 1753.24 252.155 1752.54 251.602C1752.08 251.259 1751.63 250.897 1751.2 250.517C1750.91 250.307 1750.63 250.059 1750.34 249.812C1749.97 249.488 1749.59 249.164 1749.21 248.821C1748.62 248.345 1748.07 247.812 1747.54 247.317C1745.41 245.34 1743.4 243.242 1741.51 241.031C1740.87 240.308 1740.26 239.584 1739.68 238.822C1739.54 238.672 1739.41 238.513 1739.3 238.346C1729.77 226.241 1723.95 211.608 1722.55 196.23C1721.15 180.852 1724.22 165.396 1731.39 151.746C1738.56 138.096 1749.53 126.843 1762.94 119.359C1776.36 111.876 1791.65 108.485 1806.94 109.601C1822.24 110.718 1836.88 116.293 1849.09 125.646C1861.29 134.999 1870.53 147.726 1875.67 162.274C1880.81 176.823 1881.64 192.564 1878.05 207.577C1874.45 222.59 1866.6 236.226 1855.44 246.822L1855.44 246.822Z" fill="#3F3D56"/>
<path d="M1805.68 222.541C1821.31 222.541 1833.98 209.851 1833.98 194.197C1833.98 178.544 1821.31 165.854 1805.68 165.854C1790.05 165.854 1777.38 178.544 1777.38 194.197C1777.38 209.851 1790.05 222.541 1805.68 222.541Z" fill="#FDA57D"/>
<path d="M1796.72 171.522C1796.72 171.522 1809.92 175.065 1816.76 176.483C1823.6 177.9 1822.89 173.884 1822.89 173.884C1822.89 173.884 1831.85 175.065 1831.38 174.121C1830.91 173.176 1835.16 168.216 1830.2 162.547C1825.25 156.878 1826.67 152.627 1826.67 152.627H1822.42L1821.24 150.973H1814.64C1814.64 150.973 1807.34 144.562 1794.37 146.451C1781.4 148.341 1766.06 153.335 1764.65 161.13C1764.46 162.187 1764.2 163.362 1763.91 164.602C1760.36 179.599 1767.9 193.631 1775.71 206.907C1777.64 210.169 1786.93 217.284 1786.69 212.403C1786.45 207.521 1778.33 196.559 1783.98 195.851C1789.64 195.142 1799.31 180.734 1796.72 171.522Z" fill="#72351C"/>
<path d="M1819.35 212.925L1822.19 217.901C1813.2 223.388 1805.17 223.619 1797.02 221.262L1795.34 206.137L1783.59 194.372L1788.63 183.448C1788.51 190.66 1791.98 197.734 1798.7 205.296C1804.39 211.711 1806.7 212.888 1819.35 212.925L1818.84 212.019L1821.43 209.498H1829.75L1827.23 212.859C1824.22 212.902 1821.62 212.932 1819.35 212.925Z" fill="#72351C"/>
</svg>
