<svg width="1141" height="759" viewBox="0 0 1141 759" fill="none" xmlns="http://www.w3.org/2000/svg">
<g clip-path="url(#clip0)">
<path d="M921.31 433.273L910.506 431.404C909.469 431.223 908.44 431.001 907.405 430.813C924.506 420.195 937.487 404.074 944.217 385.099C950.947 366.123 951.024 345.423 944.436 326.397C937.849 307.372 924.988 291.155 907.967 280.408C890.947 269.662 870.778 265.027 850.775 267.264L864.936 300.972L831.386 271.667C831.308 271.687 831.231 271.712 831.157 271.744C820.17 275.615 810.053 281.612 801.384 289.394C792.715 297.176 785.663 306.59 780.63 317.098C775.598 327.607 772.684 339.004 772.055 350.639C771.426 362.274 773.094 373.918 776.964 384.908C777.526 386.507 778.194 388.032 778.835 389.577C769.363 384.816 760.277 379.275 752.868 372.179C737.867 357.799 729.648 337.957 720.463 313.51C702.266 265.065 684.747 215.919 667.926 166.666C686.478 156.623 700.843 140.293 708.44 120.608C716.037 100.924 716.368 79.1741 709.375 59.2666C708.474 56.7054 707.43 54.2391 706.323 51.8169C706.047 51.2108 705.768 50.6084 705.479 50.0109C704.354 47.6887 703.167 45.4135 701.864 43.2299C701.651 42.872 701.412 42.537 701.195 42.1829C700.061 40.3418 698.864 38.5552 697.606 36.8231C697.138 36.1728 696.671 35.5243 696.186 34.8894C694.76 33.0244 693.284 31.2097 691.727 29.4771C691.207 28.8974 690.655 28.3558 690.12 27.7911C688.924 26.5285 687.695 25.3041 686.433 24.1177C685.768 23.4932 685.11 22.8641 684.427 22.2617C684.252 22.1071 684.089 21.9384 683.912 21.7851C683.903 21.7965 683.897 21.8086 683.888 21.8198C668.265 8.20057 648.365 0.48795 627.648 0.0223802C606.93 -0.443189 586.704 6.36772 570.485 19.2714L588.912 63.1364L555.743 34.1798C544.135 48.974 537.556 67.0914 536.966 85.8891C536.377 104.687 541.807 123.181 552.465 138.675C552.434 138.685 552.402 138.694 552.372 138.704C552.734 139.237 553.145 139.724 553.518 140.247C554.217 141.229 554.933 142.193 555.666 143.139C556.608 144.353 557.587 145.526 558.586 146.683C559.34 147.557 560.084 148.437 560.869 149.278C562.018 150.507 563.221 151.67 564.432 152.828C565.139 153.503 565.815 154.212 566.543 154.862C568.449 156.566 570.422 158.182 572.46 159.712C573.175 160.247 573.93 160.72 574.659 161.233C576.091 162.24 577.529 163.232 579.015 164.151C579.937 164.721 580.883 165.242 581.825 165.778C583.187 166.554 584.559 167.307 585.96 168.009C586.953 168.507 587.954 168.98 588.965 169.441C590.403 170.097 591.86 170.705 593.331 171.283C594.319 171.671 595.302 172.064 596.303 172.417C597.955 172.999 599.631 173.505 601.317 173.989C602.168 174.234 603.006 174.514 603.865 174.733C606.394 175.378 608.952 175.927 611.539 176.348C612.026 176.428 612.521 176.458 613.009 176.529C615.154 176.841 617.311 177.093 619.484 177.247C620.418 177.313 621.358 177.322 622.296 177.359C624.053 177.427 625.811 177.462 627.579 177.424C628.61 177.402 629.641 177.349 630.675 177.291C632.396 177.193 634.119 177.043 635.844 176.841C636.864 176.722 637.881 176.605 638.901 176.451C640.749 176.17 642.594 175.803 644.441 175.402C644.562 175.376 644.683 175.36 644.804 175.333C651.904 196.112 659.135 216.847 666.497 237.537C657.518 229.46 646.983 223.303 635.539 219.445C624.096 215.587 611.985 214.109 599.95 215.101C587.915 216.094 576.21 219.536 565.552 225.216C554.895 230.897 545.51 238.696 537.974 248.135L568.638 282.058L527.12 265.479C517.036 286.633 515.759 310.927 523.572 333.022C526.279 340.786 530.072 348.127 534.838 354.827C545.096 369.341 559.478 380.437 576.117 386.676C592.756 392.914 610.885 394.008 628.153 389.813C645.421 385.619 661.031 376.331 672.957 363.154C684.884 349.977 692.577 333.519 695.039 315.915C695.819 318 696.572 320.111 697.354 322.194C705.46 343.761 715.543 370.601 735.794 390.006C749.52 403.159 766.409 411.504 782.613 418.559C793.164 423.152 803.855 427.399 814.688 431.299C826.73 438.603 840.335 442.94 854.381 443.953C871.472 448.703 888.78 452.668 906.249 455.729L917.141 457.607C926.93 459.284 936.968 461.012 946.93 463.001C945.495 463.427 944.059 463.833 942.632 464.336C924.882 470.585 909.577 482.318 898.93 497.84C888.284 513.361 882.846 531.867 883.403 550.683L951.691 571.65L889.899 581.466C895.551 595.362 904.633 607.599 916.295 617.032C927.956 626.466 941.818 632.789 956.585 635.41C971.352 638.032 986.543 636.867 1000.74 632.023C1014.93 627.18 1027.67 618.817 1037.76 607.715C1037.13 609.817 1036.5 611.916 1035.87 614.012C1034.61 618.176 1033.37 622.317 1032.17 626.419C1015.91 682.308 1022.91 726.271 1051.88 750.206L1067.6 731.171C1039.41 707.872 1048.15 659.863 1055.87 633.315C1057.04 629.287 1058.27 625.219 1059.5 621.129C1070.09 585.935 1082.1 546.043 1066.55 509.386C1043.12 454.136 975.577 442.568 921.31 433.273Z" fill="#FAC722"/>
<path d="M303.812 757.395H782.268C797.958 757.395 813.005 751.161 824.099 740.062C835.194 728.964 841.427 713.912 841.427 698.217V478.94C841.427 475.756 840.778 472.605 839.521 469.679C838.264 466.754 836.424 464.116 834.113 461.925L580.579 221.516C570.442 211.905 557.007 206.547 543.04 206.547C529.073 206.547 515.637 211.905 505.5 221.516L263.769 450.733C257.73 456.459 252.921 463.356 249.634 471.002C246.348 478.649 244.653 486.885 244.653 495.208V698.217C244.653 705.988 246.183 713.684 249.156 720.864C252.129 728.043 256.487 734.567 261.98 740.062C267.474 745.558 273.995 749.917 281.173 752.891C288.35 755.865 296.043 757.395 303.812 757.395V757.395Z" fill="#3F3D56"/>
<path opacity="0.1" d="M841.427 482.541H249.626V721.662C249.626 731.14 253.39 740.229 260.089 746.93C266.788 753.631 275.874 757.396 285.348 757.396H805.705C815.179 757.396 824.265 753.631 830.964 746.93C837.663 740.229 841.427 731.14 841.427 721.662V482.541V482.541Z" fill="black"/>
<path opacity="0.1" d="M323.601 492.429V734.388H763.722V492.429L543.662 598.826L323.601 492.429Z" fill="black"/>
<path d="M731.736 415.392H356.716C338.739 415.392 324.166 425.934 324.166 438.939V710.229C324.166 723.234 338.739 733.776 356.716 733.776H731.736C749.713 733.776 764.286 723.234 764.286 710.229V438.939C764.286 425.934 749.713 415.392 731.736 415.392Z" fill="#6C63FF"/>
<path d="M485.735 441.509H362.65V458.92H485.735V441.509Z" fill="#F2F2F2"/>
<path d="M718.228 504.938H352.704V514.887H718.228V504.938Z" fill="#F2F2F2"/>
<path d="M718.228 538.517H352.704V548.466H718.228V538.517Z" fill="#F2F2F2"/>
<path d="M718.228 572.097H352.704V582.046H718.228V572.097Z" fill="#F2F2F2"/>
<path d="M543.662 612.506L825.629 476.177C827.374 475.333 829.303 474.947 831.237 475.053C833.171 475.16 835.047 475.756 836.688 476.786C838.329 477.816 839.681 479.245 840.619 480.941C841.557 482.637 842.048 484.543 842.048 486.48V721.04C842.048 725.733 841.124 730.379 839.329 734.715C837.534 739.05 834.903 742.989 831.586 746.308C828.269 749.626 824.331 752.258 819.997 754.054C815.663 755.85 811.017 756.774 806.326 756.774H280.997C276.306 756.774 271.661 755.85 267.327 754.054C262.993 752.258 259.055 749.626 255.737 746.308C252.42 742.989 249.789 739.05 247.994 734.715C246.199 730.379 245.275 725.733 245.275 721.04V490.499C245.275 488.134 245.875 485.808 247.019 483.739C248.163 481.67 249.814 479.925 251.816 478.669C253.818 477.412 256.107 476.685 258.467 476.555C260.827 476.425 263.182 476.896 265.31 477.925L543.662 612.506Z" fill="#3F3D56"/>
<path d="M1065.22 756.774H40.7553" stroke="#3F3D56" stroke-miterlimit="10"/>
<path d="M1141 603.628C1141 676.956 1095.01 736.292 1038.18 736.292Z" fill="#46455B"/>
<path d="M1038.18 736.293C1038.18 662.141 986.863 602.138 923.442 602.138Z" fill="#6C63FF"/>
<path d="M1103.75 610.275C1103.75 679.929 1074.42 736.292 1038.18 736.292Z" fill="#6C63FF"/>
<path d="M1038.18 736.292C1038.18 641.543 978.865 564.872 905.561 564.872Z" fill="#46455B"/>
<path d="M1059.81 737.227C1059.81 737.227 1045.23 736.778 1040.84 733.648C1036.44 730.518 1018.41 726.78 1017.32 731.8C1016.23 736.82 995.403 756.769 1011.87 756.901C1028.33 757.034 1050.12 754.336 1054.5 751.664C1058.89 748.991 1059.81 737.227 1059.81 737.227Z" fill="#FAC722"/>
<path opacity="0.2" d="M1011.57 755.155C1028.03 755.287 1049.82 752.589 1054.21 749.917C1057.55 747.882 1058.88 740.578 1059.33 737.209C1059.63 737.222 1059.81 737.228 1059.81 737.228C1059.81 737.228 1058.89 748.992 1054.5 751.664C1050.12 754.337 1028.33 757.035 1011.87 756.902C1007.11 756.864 1005.47 755.172 1005.56 752.668C1006.22 754.181 1008.03 755.126 1011.57 755.155Z" fill="black"/>
<path d="M246.196 202.436C246.943 209.095 252.021 214.46 253.902 220.891C256.734 230.571 251.837 240.959 245.139 248.498C239.735 254.517 233.19 259.403 225.884 262.874C218.578 266.344 210.656 268.329 202.577 268.714C200.204 268.922 197.813 268.662 195.54 267.947C193.511 267.13 191.684 265.881 190.186 264.286C185.142 259.22 182.434 252.2 181.355 245.131C180.276 238.062 180.696 230.861 181.118 223.722C181.115 222.247 181.383 220.783 181.908 219.404C182.596 218.091 183.541 216.929 184.687 215.988C188.318 212.655 192.319 209.748 196.61 207.323C198.549 206.454 200.26 205.145 201.606 203.499C202.416 202.09 202.941 200.534 203.15 198.921L204.467 192.206C204.702 190.271 205.363 188.413 206.401 186.763C208.728 183.623 213.179 183.196 217.084 183.043L231.388 182.482C235.837 182.307 241.7 181.031 246.043 181.905C250.1 182.721 248.752 186.46 248.015 189.864C246.947 193.975 246.337 198.191 246.196 202.436V202.436Z" fill="#FDA57D"/>
<path opacity="0.1" d="M246.196 202.436C246.943 209.095 252.021 214.46 253.902 220.891C256.734 230.571 251.837 240.959 245.139 248.498C239.735 254.517 233.19 259.403 225.884 262.874C218.578 266.344 210.656 268.329 202.577 268.714C200.204 268.922 197.813 268.662 195.54 267.947C193.511 267.13 191.684 265.881 190.186 264.286C185.142 259.22 182.434 252.2 181.355 245.131C180.276 238.062 180.696 230.861 181.118 223.722C181.115 222.247 181.383 220.783 181.908 219.404C182.596 218.091 183.541 216.929 184.687 215.988C188.318 212.655 192.319 209.748 196.61 207.323C198.549 206.454 200.26 205.145 201.606 203.499C202.416 202.09 202.941 200.534 203.15 198.921L204.467 192.206C204.702 190.271 205.363 188.413 206.401 186.763C208.728 183.623 213.179 183.196 217.084 183.043L231.388 182.482C235.837 182.307 241.7 181.031 246.043 181.905C250.1 182.721 248.752 186.46 248.015 189.864C246.947 193.975 246.337 198.191 246.196 202.436V202.436Z" fill="black"/>
<path d="M155.203 502.178C157.229 524.406 159.256 546.63 161.282 568.851C162.869 586.338 164.486 603.896 167.597 621.158C168.672 627.107 169.931 633.025 171.425 638.891C175.581 655.18 181.609 671.101 183.554 687.8C183.615 688.281 183.666 688.772 183.717 689.264C183.935 692.956 184.634 696.605 185.795 700.116C186.767 702.666 188.262 704.99 189.316 707.509C191.414 712.546 191.69 718.115 191.946 723.572C199.327 719.42 207.406 716.658 215.784 715.423C219.826 714.819 224.33 714.389 227.083 711.368C230.133 708.031 229.795 702.922 229.284 698.437C227.677 684.513 226.073 670.596 224.473 656.685C223.951 650.701 222.934 644.769 221.433 638.953C220.881 637.017 220.215 635.113 219.54 633.209C218.609 630.588 217.667 627.967 216.961 625.274C215.943 620.923 215.232 616.507 214.832 612.056C213.184 598.05 211.198 584.075 209.458 570.079L209.366 569.342C206.756 548.128 204.771 526.812 205.344 505.445C205.426 502.281 205.559 499.117 205.764 495.943C206.05 491.346 206.47 488.91 202.662 486.033C198.456 482.859 192.919 480.637 188.108 478.559C185.519 477.432 157.004 467.307 156.339 469.528C155.001 474.267 154.299 479.163 154.251 484.087C154.231 490.131 154.548 496.171 155.203 502.178Z" fill="#605D82"/>
<path opacity="0.1" d="M167.597 621.158C168.672 627.107 169.931 633.024 171.425 638.891C175.581 655.18 181.609 671.101 183.554 687.799C183.615 688.281 183.666 688.772 183.717 689.264C196.429 671.101 207.135 651.566 219.54 633.209C218.608 630.588 217.667 627.967 216.961 625.274C215.943 620.923 215.232 616.506 214.832 612.056C213.184 598.05 211.198 584.075 209.458 570.079L209.366 569.342C208.638 572.313 207.599 575.199 206.265 577.952C197.934 594.887 178.139 603.446 168.457 619.653C168.16 620.155 167.874 620.656 167.597 621.158Z" fill="black"/>
<path d="M270.746 472.252C270.326 485.834 268.153 499.293 265.984 512.708L261.508 540.384C259.059 555.532 256.509 570.988 249.343 584.555C243.983 594.704 236.26 603.365 229.273 612.47C212.096 634.854 199.193 660.211 182.906 683.251C178.172 689.948 171.405 697.191 163.326 695.792C158.023 694.875 154.172 690.458 150.004 687.053C145.089 683.039 139.167 680.101 135.3 675.07C131.434 670.038 130.676 661.674 135.915 658.093C137.81 657.043 139.822 656.219 141.91 655.639C150.031 652.55 155.287 644.617 158.631 636.596C161.975 628.575 164.002 619.95 168.458 612.49C178.139 596.283 197.937 587.724 206.27 570.784C210.937 561.296 211.382 550.36 211.739 539.791L212.648 512.85C212.748 509.904 212.826 506.84 211.628 504.147C208.441 496.975 198.816 496.307 191.023 495.398C182.179 494.361 173.611 491.657 165.772 487.429C161.284 485.004 156.899 481.913 154.498 477.411C152.307 473.304 152.004 468.486 151.748 463.838L149.049 415.013C148.817 410.813 148.605 406.469 150.085 402.531C153.802 392.643 166.283 389.412 176.833 389.884C196.464 390.762 214.587 399.21 233.097 404.914C237.682 406.361 242.337 407.575 247.044 408.553C251.198 409.387 256.225 409.041 260.187 410.377C267.233 412.753 267.055 428.167 268.054 434.561C270.117 447.014 271.018 459.632 270.746 472.252V472.252Z" fill="#605D82"/>
<path d="M165.991 697.84C164.26 699.586 163.694 702.145 163.243 704.562C160.743 717.973 159.442 731.58 159.357 745.221C159.472 746.494 159.218 747.773 158.625 748.905C158.138 749.58 157.477 750.112 156.713 750.442C151.71 752.828 145.903 749.503 141.734 745.85C134.005 739.078 127.465 729.988 127.026 719.719C127.107 717.074 127.014 714.427 126.749 711.794C126.07 707.928 123.814 704.56 121.825 701.176C118.441 695.416 115.712 689.296 113.688 682.929C112.928 680.537 112.422 677.525 114.296 675.856C114.96 675.335 115.715 674.942 116.523 674.697L139.124 666.303C141.083 665.576 145.956 678.098 146.73 679.467C148.622 682.816 150.503 684.717 154.299 685.49C158.174 686.28 162.787 685.147 166.402 687.081C172.518 690.352 169.454 694.346 165.991 697.84Z" fill="#535070"/>
<path d="M200.865 705.568C201.285 704.732 201.871 703.99 202.585 703.386C203.632 702.722 204.821 702.318 206.055 702.207C210.358 701.476 215.458 700.995 218.428 704.194C221.212 707.193 220.733 712.079 223.061 715.445C223.798 716.511 224.796 717.389 225.435 718.517C226.228 720.24 226.586 722.131 226.476 724.025C226.597 729.242 226.717 734.469 226.356 739.675C226.054 744.038 225.319 748.61 222.592 752.028C218.214 757.514 210.319 758.303 203.311 758.659L197.635 758.947C196.072 759.137 194.486 758.992 192.983 758.521C192.053 758.091 191.219 757.478 190.53 756.72C189.84 755.961 189.31 755.072 188.971 754.105C186.017 746.759 190.696 738.845 193.578 731.47C196.89 722.994 196.295 713.582 200.865 705.568Z" fill="#535070"/>
<path d="M223.206 238.385C224.3 235.251 226.363 232.547 229.097 230.665C231.831 228.783 235.093 227.821 238.411 227.919C239.359 228.096 240.34 227.972 241.215 227.564C241.71 227.184 242.105 226.689 242.368 226.123C244.328 222.596 245.904 218.869 247.069 215.006C247.583 213.299 248.286 211.286 250.012 210.842C250.727 210.749 251.454 210.851 252.115 211.139C252.776 211.427 253.346 211.889 253.765 212.475C254.585 213.657 255.481 214.783 256.447 215.848C260.502 219.474 267.69 216.169 271.994 219.496C272.697 220.04 273.277 220.736 274.015 221.23C274.754 221.675 275.551 222.017 276.382 222.246C284.693 224.96 292.84 228.152 300.783 231.805C297.92 249.051 294.987 266.598 288.277 282.74C285.083 290.422 281.465 297.946 278.907 305.862C273.241 323.403 272.99 342.17 272.927 360.604C272.883 373.22 272.946 386.105 277.026 398.043C278.124 400.681 278.898 403.442 279.331 406.267C279.577 409.112 278.749 412.248 276.445 413.933C275.109 414.807 273.581 415.344 271.993 415.498C264.922 416.536 257.795 414.653 250.833 413.041C232.174 408.718 213.143 406.244 194.149 403.777L162.322 399.643C160.04 399.488 157.807 398.911 155.737 397.941C149.912 394.751 149.36 385.987 152.976 380.417C154.71 377.747 157.157 375.556 158.614 372.724C160.07 369.893 160.195 365.934 157.686 363.973C152.585 359.984 154.106 352.584 153.863 346.111C153.183 328.012 153.275 309.906 154.139 291.793C154.395 288.044 154.455 284.284 154.319 280.528C153.753 274.164 152.578 267.869 150.809 261.73L141.138 223.638C143.664 219.644 148.502 217.111 153.084 215.96C157.666 214.81 162.439 214.471 166.952 213.072C176.197 210.207 184.428 202.934 194.084 203.612C194.814 203.625 195.532 203.8 196.187 204.125C198.364 205.359 198.019 208.499 198.159 210.998C198.466 216.529 202.533 221.151 207.023 224.392C211.514 227.633 216.643 229.996 220.767 233.692C221.498 234.242 222.096 234.95 222.518 235.762C222.94 236.574 223.175 237.471 223.206 238.385V238.385Z" fill="#3F3D56"/>
<path d="M350.952 274.517C353.09 275.905 355.362 277.074 357.734 278.008C360.056 278.699 362.25 279.764 364.23 281.161C365.142 281.951 365.907 282.896 366.489 283.953C367.58 285.889 368.132 288.083 368.087 290.305C368.042 292.527 367.401 294.696 366.232 296.586C365.062 298.476 363.407 300.017 361.439 301.049C359.471 302.081 357.263 302.565 355.044 302.452C352.095 302.121 349.229 301.266 346.58 299.928L323.841 290.07C319.992 288.402 315.834 286.447 314.015 282.666C313.803 282.313 313.725 281.897 313.794 281.491C313.977 281.062 314.309 280.713 314.728 280.509C319.857 277.177 324.342 272.946 327.969 268.019C328.902 266.752 330.043 263.76 331.362 263.001C336.175 260.228 347.1 272.016 350.952 274.517Z" fill="#FDA57D"/>
<path d="M107.857 266.429L99.4736 276.009C97.6738 278.065 95.872 280.124 94.2314 282.31C90.2027 287.864 86.9708 293.955 84.6296 300.405C82.8073 305.189 81.2948 310.284 81.9316 315.363C82.3544 317.967 83.0574 320.518 84.0284 322.97C85.565 327.687 87.4697 332.276 89.7251 336.695C91.6221 340.052 93.7648 343.264 96.1356 346.305C102.627 354.911 109.729 363.037 117.388 370.622C120.254 373.46 121.456 378.049 122.703 381.886C125.005 388.962 130.481 394.473 135.776 399.699C137.478 401.497 139.358 403.116 141.389 404.531C144.431 406.491 147.986 407.504 151.604 407.441C153.187 407.452 154.756 407.128 156.205 406.488C159.828 404.767 161.67 400.576 162.048 396.581C162.385 392.955 161.778 389.304 160.285 385.983C155.474 375.323 143.12 370.703 134.388 362.925C129.267 358.364 125.352 352.635 121.49 346.968C118.867 343.43 116.677 339.59 114.967 335.53C113.017 330.325 113.776 324.163 112.072 318.872C111.352 316.635 110.071 314.616 109.297 312.398C108.523 310.179 108.328 307.546 109.682 305.626C110.704 304.406 112.007 303.452 113.478 302.847C119.056 300.014 125.304 296.369 126.372 290.203C126.797 286.784 125.904 283.331 123.874 280.547C121.851 277.8 119.487 275.322 116.84 273.172C114.4 271.014 110.297 268.587 107.857 266.429Z" fill="#FDA57D"/>
<path d="M356.335 287.89C357.815 284.898 359.666 281.846 362.653 280.359C364.101 279.73 365.662 279.402 367.241 279.396C368.819 279.389 370.383 279.704 371.836 280.32C374.733 281.57 377.445 283.21 379.896 285.196L387.122 290.524C388.761 291.599 390.21 292.938 391.413 294.486C392.553 296.363 393.312 298.447 393.647 300.618C394.906 305.57 395.291 310.703 394.783 315.787C393.636 323.939 388.723 331.055 383.316 337.26C379.937 341.138 375.765 345.05 370.625 345.216C368.407 345.287 365.939 344.412 365.017 342.393C364.697 341.592 364.527 340.74 364.516 339.878C363.961 330.785 367.212 321.904 371.004 313.622C372.213 311.454 372.927 309.044 373.096 306.567C373.123 306.15 373.014 305.736 372.787 305.386C372.46 305.045 372.023 304.832 371.553 304.783C366.363 303.756 357.425 307.789 353.784 302.024C351.424 298.287 354.657 291.279 356.335 287.89Z" fill="#FDA57D"/>
<path d="M318.007 243.147C319.308 243.986 320.451 245.05 321.381 246.289C322.563 248.077 322.804 250.334 323.819 252.221C325.992 256.26 331.074 257.697 334.244 261.011C334.748 261.466 335.098 262.067 335.246 262.73C335.261 263.629 334.96 264.505 334.394 265.205L319.106 289.247C314.016 289.695 309.132 286.505 304.04 286.929C302.139 287.087 300.193 287.744 298.37 287.182C297.064 286.603 295.841 285.854 294.731 284.955C291.693 283.034 287.646 282.81 285.097 280.275C282.651 277.842 282.339 274.035 282.368 270.584C282.327 267.587 282.632 264.596 283.277 261.669C285.528 252.441 292.583 245.359 297.007 237.184C299.16 233.205 300.332 230.875 304.89 233.608C309.471 236.354 313.695 239.993 318.007 243.147Z" fill="#3F3D56"/>
<path d="M132.334 230.989C129.461 232.855 126.87 235.125 124.643 237.728C122.313 240.732 120.994 244.409 118.757 247.482C116.589 250.46 113.637 252.767 111.177 255.51C107.446 259.67 104.92 264.745 102.438 269.752C108.499 277.658 115.107 285.129 122.214 292.11C123.005 293.042 124.048 293.727 125.217 294.084C126.013 294.169 126.817 294.055 127.557 293.753C128.298 293.451 128.952 292.97 129.462 292.353C130.563 291.197 131.344 289.773 132.396 288.573C134.881 286.009 138.191 284.407 141.743 284.051C145.263 283.711 148.805 283.662 152.333 283.905C153.108 283.991 153.891 283.86 154.595 283.525C155.118 283.164 155.542 282.677 155.829 282.109C159.968 275.063 158.637 266.217 157.176 258.176L153.825 239.726C153.34 236.202 152.402 232.755 151.036 229.471C149.767 226.758 146.929 222.156 143.439 222.969C139.921 223.788 135.293 228.859 132.334 230.989Z" fill="#3F3D56"/>
<path d="M227.19 201.386C202.471 201.386 182.432 181.477 182.432 156.918C182.432 132.358 202.471 112.449 227.19 112.449C251.909 112.449 271.948 132.358 271.948 156.918C271.948 181.477 251.909 201.386 227.19 201.386Z" fill="#72351C"/>
<path d="M227.19 206.943C204.517 206.943 186.136 188.555 186.136 165.871C186.136 143.188 204.517 124.8 227.19 124.8C249.864 124.8 268.244 143.188 268.244 165.871C268.244 188.555 249.864 206.943 227.19 206.943Z" fill="#FDA57D"/>
<path d="M256.282 125.467C255.126 121.839 253.126 118.545 250.453 115.862C242.443 107.844 229.316 106.151 222.582 97.0078C220.965 99.5449 222.216 103.447 224.996 104.537C218.553 104.495 211.067 103.923 207.421 98.5422C206.519 100.668 206.232 103.01 206.592 105.295C206.952 107.58 207.946 109.714 209.456 111.45C203.738 111.713 197.636 115.644 197.266 121.43C197.02 125.285 199.406 128.935 202.534 131.146C205.661 133.356 209.445 134.371 213.169 135.203C224.04 137.631 263.376 147.807 256.282 125.467Z" fill="#72351C"/>
<path d="M186.136 166.182H187.225L208.405 184.945C228.81 175.435 243.791 184.945 243.791 184.945L266.004 166.953L268.244 167.233C267.94 177.958 263.41 188.133 255.632 195.563C247.853 202.992 237.451 207.079 226.67 206.941C215.89 206.803 205.596 202.451 198.012 194.825C190.428 187.199 186.163 176.911 186.136 166.182V166.182ZM227.26 192.142C235.249 192.142 241.725 190.531 241.725 188.544C241.725 186.556 235.249 184.945 227.26 184.945C219.272 184.945 212.796 186.556 212.796 188.544C212.796 190.531 219.272 192.142 227.26 192.142Z" fill="#72351C"/>
<path d="M268.244 172.975C266.198 172.975 264.54 169.795 264.54 165.872C264.54 161.949 266.198 158.77 268.244 158.77C270.29 158.77 271.948 161.949 271.948 165.872C271.948 169.795 270.29 172.975 268.244 172.975Z" fill="#FDA57D"/>
<path d="M186.136 172.975C184.09 172.975 182.432 169.795 182.432 165.872C182.432 161.949 184.09 158.77 186.136 158.77C188.182 158.77 189.84 161.949 189.84 165.872C189.84 169.795 188.182 172.975 186.136 172.975Z" fill="#FDA57D"/>
<path d="M210.08 290.643C209.213 291.885 208 292.816 206.441 293.438C204.895 294.047 203.09 294.352 201.027 294.352C198.941 294.352 197.09 293.865 195.473 292.893C193.855 291.908 192.602 290.514 191.711 288.709C190.832 286.904 190.381 284.812 190.357 282.434V280.201C190.357 276.346 191.254 273.357 193.047 271.236C194.852 269.115 197.383 268.055 200.641 268.055C203.312 268.055 205.463 268.74 207.092 270.111C208.721 271.471 209.717 273.404 210.08 275.912H206.705C206.072 272.525 204.057 270.832 200.658 270.832C198.396 270.832 196.68 271.629 195.508 273.223C194.348 274.805 193.762 277.102 193.75 280.113V282.205C193.75 285.076 194.406 287.361 195.719 289.061C197.031 290.748 198.807 291.592 201.045 291.592C202.311 291.592 203.418 291.451 204.367 291.17C205.316 290.889 206.102 290.414 206.723 289.746V283.998H200.799V281.256H210.08V290.643ZM235.41 282.029C235.41 284.537 234.988 286.729 234.145 288.604C233.301 290.467 232.105 291.891 230.559 292.875C229.012 293.859 227.207 294.352 225.145 294.352C223.129 294.352 221.342 293.859 219.783 292.875C218.225 291.879 217.012 290.467 216.145 288.639C215.289 286.799 214.85 284.672 214.826 282.258V280.412C214.826 277.951 215.254 275.777 216.109 273.891C216.965 272.004 218.172 270.562 219.73 269.566C221.301 268.559 223.094 268.055 225.109 268.055C227.16 268.055 228.965 268.553 230.523 269.549C232.094 270.533 233.301 271.969 234.145 273.855C234.988 275.73 235.41 277.916 235.41 280.412V282.029ZM232.053 280.377C232.053 277.342 231.443 275.016 230.225 273.398C229.006 271.77 227.301 270.955 225.109 270.955C222.977 270.955 221.295 271.77 220.064 273.398C218.846 275.016 218.219 277.266 218.184 280.148V282.029C218.184 284.971 218.799 287.285 220.029 288.973C221.271 290.648 222.977 291.486 225.145 291.486C227.324 291.486 229.012 290.695 230.207 289.113C231.402 287.52 232.018 285.24 232.053 282.275V280.377ZM257.664 271.184H249.438V294H246.08V271.184H237.871V268.406H257.664V271.184ZM214.211 336H210.836V310.406H214.211V336ZM237.555 313.184H229.328V336H225.971V313.184H217.762V310.406H237.555V313.184Z" fill="#FAC722"/>
</g>
<defs>
<clipPath id="clip0">
<rect width="1260" height="759" fill="white" transform="matrix(-1 0 0 1 1141 0)"/>
</clipPath>
</defs>
</svg>
