<svg width="412" height="402" viewBox="0 0 412 402" fill="none" xmlns="http://www.w3.org/2000/svg">
<path d="M45.7192 212.284C29.3387 189.105 58.5703 153.881 82.24 146.403C105.91 138.925 144.184 125.726 163.16 117.486C182.136 109.246 219.941 71.6525 248.162 64.0404C276.382 56.4283 279.752 48.2023 309.516 68.6121C339.28 89.0219 346.797 123.456 338.485 156.455C330.173 189.454 298.047 298.302 231.735 331.605C165.422 364.909 132.26 366.399 118.416 334.095C104.572 301.79 110.306 266.32 102.082 258.297C93.8586 250.274 62.0996 235.463 45.7192 212.284Z" fill="#1686E2"/>
<path d="M90.9671 139.116C92.9146 104.08 141.117 92.8882 165.948 104.08C190.779 115.272 231.679 132.304 253.101 139.116C274.524 145.929 331.491 139.116 360.217 153.715C388.943 168.313 400.124 177.191 408.419 205.782C416.714 234.373 402.577 287.534 373.363 312.837C344.149 338.141 243.851 417.946 165.948 398.481C88.0453 379.016 59.3192 354.686 69.5439 312.837C79.7686 270.989 108.495 241.305 107.034 227.193C105.574 213.082 89.0195 174.153 90.9671 139.116Z" fill="#FAC722"/>
<g clip-path="url(#clip0)">
<path d="M110.656 294.961C108.127 304.59 99.2668 310.608 99.2668 310.608C99.2668 310.608 94.5059 301.013 97.0345 291.384C99.5632 281.754 108.424 275.737 108.424 275.737C108.424 275.737 113.185 285.331 110.656 294.961Z" fill="#3F3D56"/>
<path d="M106.821 292.924C99.7383 299.921 98.9459 310.602 98.9459 310.602C98.9459 310.602 109.636 309.939 116.719 302.942C123.801 295.945 124.593 285.264 124.593 285.264C124.593 285.264 113.903 285.927 106.821 292.924Z" fill="#399CEE"/>
<path d="M115.702 307.788H87.9988C84.9602 307.788 82.4968 310.251 82.4968 313.29V318.757C82.4968 321.796 84.9602 324.259 87.9988 324.259H115.702C118.741 324.259 121.204 321.796 121.204 318.757V313.29C121.204 310.251 118.741 307.788 115.702 307.788Z" fill="#1686E2"/>
<g opacity="0.7">
<path opacity="0.7" d="M382.058 297.266V291.331H352.383V318.781C352.383 319.541 352.532 320.294 352.823 320.996C353.114 321.698 353.54 322.336 354.077 322.873C354.615 323.41 355.253 323.837 355.955 324.127C356.657 324.418 357.409 324.568 358.169 324.568H376.271C377.806 324.568 379.278 323.958 380.363 322.873C381.449 321.788 382.058 320.316 382.058 318.781V312.698C384.102 312.694 386.061 311.879 387.504 310.433C388.948 308.986 389.759 307.026 389.759 304.982C389.759 302.938 388.948 300.978 387.504 299.532C386.061 298.085 384.102 297.27 382.058 297.266ZM382.058 309.73V300.234C383.317 300.234 384.525 300.734 385.416 301.625C386.306 302.515 386.806 303.723 386.806 304.982C386.806 306.241 386.306 307.449 385.416 308.339C384.525 309.23 383.317 309.73 382.058 309.73Z" fill="url(#paint0_linear)"/>
</g>
<path d="M381.103 298.195C379.71 298.195 378.348 298.609 377.189 299.383C376.031 300.157 375.128 301.257 374.595 302.544C374.062 303.832 373.922 305.248 374.194 306.614C374.466 307.981 375.137 309.236 376.122 310.221C377.107 311.207 378.362 311.878 379.729 312.149C381.095 312.421 382.512 312.282 383.799 311.749C385.086 311.215 386.187 310.312 386.961 309.154C387.735 307.995 388.148 306.633 388.148 305.24C388.148 303.372 387.406 301.58 386.085 300.259C384.764 298.938 382.972 298.195 381.103 298.195ZM381.103 309.575C380.246 309.575 379.408 309.321 378.695 308.845C377.982 308.368 377.426 307.691 377.098 306.899C376.77 306.107 376.684 305.235 376.851 304.394C377.019 303.553 377.432 302.781 378.038 302.175C378.644 301.568 379.417 301.155 380.258 300.988C381.098 300.821 381.97 300.907 382.762 301.235C383.554 301.563 384.232 302.119 384.708 302.832C385.184 303.545 385.439 304.383 385.439 305.24C385.439 306.39 384.982 307.493 384.169 308.306C383.356 309.119 382.253 309.575 381.103 309.575Z" fill="#62DEF7"/>
<path opacity="0.1" d="M381.103 298.195C379.71 298.195 378.348 298.609 377.189 299.383C376.031 300.157 375.128 301.257 374.595 302.544C374.062 303.832 373.922 305.248 374.194 306.614C374.466 307.981 375.137 309.236 376.122 310.221C377.107 311.207 378.362 311.878 379.729 312.149C381.095 312.421 382.512 312.282 383.799 311.749C385.086 311.215 386.187 310.312 386.961 309.154C387.735 307.995 388.148 306.633 388.148 305.24C388.148 303.372 387.406 301.58 386.085 300.259C384.764 298.938 382.972 298.195 381.103 298.195ZM381.103 309.575C380.246 309.575 379.408 309.321 378.695 308.845C377.982 308.368 377.426 307.691 377.098 306.899C376.77 306.107 376.684 305.235 376.851 304.394C377.019 303.553 377.432 302.781 378.038 302.175C378.644 301.568 379.417 301.155 380.258 300.988C381.098 300.821 381.97 300.907 382.762 301.235C383.554 301.563 384.232 302.119 384.708 302.832C385.184 303.545 385.439 304.383 385.439 305.24C385.439 306.39 384.982 307.493 384.169 308.306C383.356 309.119 382.253 309.575 381.103 309.575Z" fill="black"/>
<path d="M354.008 292.776H381.103V319.593C381.103 320.529 380.731 321.427 380.069 322.089C379.407 322.751 378.51 323.123 377.574 323.123H357.538C356.602 323.123 355.704 322.751 355.042 322.089C354.38 321.427 354.008 320.529 354.008 319.593V292.776Z" fill="#1686E2"/>
<path d="M409.553 323.123H57.8591V335.045H409.553V323.123Z" fill="#04457B"/>
<g opacity="0.7">
<path opacity="0.7" d="M289.188 243.355C285.418 229.673 264.049 219.682 247.97 217.466C247.972 217.366 247.977 217.265 247.977 217.164V205.452C247.995 205.446 248.012 205.441 248.029 205.434V204.99C253.736 202.868 258.885 199.476 263.088 195.071C267.291 190.667 270.437 185.364 272.289 179.564C273.283 177.767 274.148 175.902 274.878 173.983C276.594 173.358 277.891 170.528 277.891 167.127C277.897 165.963 277.734 164.805 277.406 163.689C277.617 161.957 277.724 160.214 277.728 158.469C277.735 152.369 276.459 146.336 273.983 140.761C271.507 135.186 267.886 130.194 263.356 126.109C263.491 125.409 263.537 124.694 263.492 123.982C263.129 118.36 257.124 114.541 251.497 114.286C252.984 112.6 253.961 110.526 254.315 108.306C254.67 106.086 254.387 103.812 253.5 101.746C249.912 106.974 242.545 107.529 236.205 107.571C238.941 106.511 240.172 102.72 238.58 100.256C231.954 109.138 219.036 110.782 211.154 118.572C209.437 120.276 207.998 122.239 206.89 124.389C201.768 128.469 197.632 133.653 194.791 139.554C191.951 145.454 190.478 151.92 190.483 158.469C190.486 160.198 190.592 161.925 190.798 163.642C190.46 164.772 190.292 165.947 190.299 167.127C190.299 170.543 191.607 173.383 193.335 173.99C194.068 175.916 194.937 177.787 195.936 179.589C197.781 185.356 200.907 190.63 205.079 195.017C209.25 199.405 214.36 202.792 220.026 204.926V217.164C220.026 217.258 220.031 217.351 220.033 217.445C203.893 219.622 182.353 229.692 178.617 243.484C175.391 255.394 171.947 268.474 170.234 276.154C184.921 286.474 215.739 292.534 235.053 292.534C253.403 292.534 283.396 287.064 297.651 277.667C296.107 269.229 292.554 255.574 289.188 243.355Z" fill="url(#paint1_linear)"/>
</g>
<path d="M235.013 289.136C252.715 289.136 281.648 283.86 295.399 274.795C293.91 266.655 290.483 253.483 287.235 241.695C283.099 226.683 256.996 216.275 241.424 216.275H226.418C210.798 216.275 184.656 226.743 180.572 241.82C177.46 253.309 174.138 265.927 172.485 273.336C186.653 283.291 216.382 289.136 235.013 289.136Z" fill="#1686E2"/>
<path d="M234.099 201.89C257.34 201.89 276.181 183.05 276.181 159.809C276.181 136.568 257.34 117.728 234.099 117.728C210.859 117.728 192.018 136.568 192.018 159.809C192.018 183.05 210.859 201.89 234.099 201.89Z" fill="#72351C"/>
<path opacity="0.1" d="M220.518 194.859H247.481V216.43C247.481 220.006 246.061 223.435 243.533 225.963C241.004 228.491 237.575 229.912 234 229.912H234C230.424 229.912 226.995 228.491 224.466 225.963C221.938 223.435 220.518 220.006 220.518 216.43V194.859H220.518Z" fill="black"/>
<path d="M224.385 193.86H243.614C244.64 193.86 245.623 194.268 246.349 194.993C247.074 195.718 247.481 196.702 247.481 197.728V215.431C247.481 219.007 246.061 222.436 243.533 224.965C241.004 227.493 237.575 228.913 234 228.913H234C230.424 228.913 226.995 227.493 224.466 224.965C221.938 222.436 220.518 219.007 220.518 215.431V197.728C220.518 196.702 220.925 195.718 221.65 194.993C222.376 194.268 223.36 193.86 224.385 193.86Z" fill="#FDA57D"/>
<path opacity="0.1" d="M220.568 205.04C229.258 208.287 238.823 208.314 247.531 205.115V201.803H220.568V205.04Z" fill="black"/>
<path d="M234.099 206.846C255.444 206.846 272.747 189.542 272.747 168.198C272.747 146.853 255.444 129.55 234.099 129.55C212.755 129.55 195.451 146.853 195.451 168.198C195.451 189.542 212.755 206.846 234.099 206.846Z" fill="#FDA57D"/>
<path opacity="0.1" d="M206.57 133.043C206.57 133.043 222.858 166.105 268.804 146.9L258.108 130.126L239.146 123.319L206.57 133.043Z" fill="black"/>
<path d="M206.57 132.557C206.57 132.557 222.858 165.619 268.804 146.414L258.108 129.64L239.146 122.833L206.57 132.557Z" fill="#72351C"/>
<path d="M206.426 130.323C207.524 126.923 209.421 123.837 211.96 121.322C219.563 113.808 232.024 112.221 238.417 103.653C239.951 106.031 238.764 109.687 236.125 110.709C242.241 110.67 249.347 110.134 252.809 105.091C253.664 107.083 253.937 109.278 253.595 111.419C253.253 113.56 252.311 115.561 250.877 117.187C256.305 117.434 262.097 121.118 262.448 126.54C262.682 130.153 260.417 133.574 257.448 135.645C254.479 137.717 250.887 138.668 247.352 139.448C237.032 141.723 199.692 151.26 206.426 130.323Z" fill="#72351C"/>
<path d="M272.746 168.536H271.722L251.787 186.282C232.582 177.288 218.482 186.282 218.482 186.282L197.576 169.265L195.468 169.53C195.753 179.674 200.017 189.298 207.338 196.324C214.659 203.351 224.45 207.216 234.596 207.086C244.743 206.955 254.431 202.839 261.569 195.627C268.707 188.414 272.722 178.683 272.746 168.536ZM234.041 193.089C226.522 193.089 220.427 191.566 220.427 189.686C220.427 187.806 226.522 186.282 234.041 186.282C241.56 186.282 247.655 187.806 247.655 189.686C247.655 191.566 241.56 193.089 234.041 193.089Z" fill="#72351C"/>
<path d="M195.436 174.902C197.422 174.902 199.031 171.884 199.031 168.161C199.031 164.438 197.422 161.42 195.436 161.42C193.45 161.42 191.841 164.438 191.841 168.161C191.841 171.884 193.45 174.902 195.436 174.902Z" fill="#FDA57D"/>
<path d="M272.742 174.902C274.728 174.902 276.338 171.884 276.338 168.161C276.338 164.438 274.728 161.42 272.742 161.42C270.757 161.42 269.147 164.438 269.147 168.161C269.147 171.884 270.757 174.902 272.742 174.902Z" fill="#FDA57D"/>
<g opacity="0.7">
<path opacity="0.7" d="M303.239 236.997H164.173C161.274 236.997 158.924 239.347 158.924 242.247V317.873C158.924 320.773 161.274 323.123 164.173 323.123H303.239C306.138 323.123 308.489 320.773 308.489 317.873V242.247C308.489 239.347 306.138 236.997 303.239 236.997Z" fill="url(#paint2_linear)"/>
</g>
<path d="M296.064 238.586H171.348C165.983 238.586 161.633 242.936 161.633 248.301V313.408C161.633 318.773 165.983 323.123 171.348 323.123H296.064C301.429 323.123 305.779 318.773 305.779 313.408V248.301C305.779 242.936 301.429 238.586 296.064 238.586Z" fill="#535461"/>
<path d="M233.706 285.732C236.4 285.732 238.583 283.548 238.583 280.855C238.583 278.161 236.4 275.977 233.706 275.977C231.013 275.977 228.829 278.161 228.829 280.855C228.829 283.548 231.013 285.732 233.706 285.732Z" fill="white"/>
<path d="M394.651 335.045H72.7615V339.922H394.651V335.045Z" fill="#04457B"/>
<path opacity="0.1" d="M394.651 335.045H72.7615V336.67H394.651V335.045Z" fill="black"/>
<path opacity="0.1" d="M376.226 292.776V317.839C376.226 319.241 375.67 320.584 374.679 321.575C373.688 322.566 372.344 323.123 370.943 323.123H373.652C375.054 323.123 376.397 322.566 377.388 321.575C378.379 320.584 378.936 319.241 378.936 317.839V292.776H376.226Z" fill="black"/>
<path d="M359.355 272.576C358.898 272.654 358.382 272.778 358.159 273.184C357.803 273.828 358.447 274.554 359.035 274.997C360.121 275.815 361.265 276.618 362.003 277.76C362.741 278.902 362.973 280.495 362.166 281.589C361.113 283.018 358.6 283.325 358.356 285.083C358.2 286.212 359.176 287.175 360.165 287.742C362.605 289.14 365.752 289.513 367.52 291.7C368.251 290.196 369.887 289.327 371.517 288.956C373.148 288.585 374.842 288.612 376.495 288.361C377.028 288.279 377.63 288.116 377.868 287.632C378.33 286.694 377.013 285.569 377.468 284.628C377.814 283.911 378.83 283.967 379.572 283.68C380.781 283.213 381.279 281.657 380.936 280.408C380.593 279.158 379.624 278.182 378.606 277.381C375.86 275.224 372.558 273.955 369.219 273.042C367.666 272.618 365.843 271.952 364.23 271.888C362.672 271.826 360.896 272.312 359.355 272.576Z" fill="#EEEEEE"/>
<path d="M373.973 172.887L353.737 167.275L349.229 116.699H398.778L394.264 167.268L373.973 172.887Z" fill="#264DE4"/>
<path d="M390.4 164.05L394.257 120.837H374.007V168.585L390.4 164.05Z" fill="#2965F1"/>
<path d="M359.578 139.586L360.134 145.788H374.017V139.586H359.578ZM358.461 127.031L359.024 133.233H374.014V127.031H358.448H358.461ZM374.014 155.696H373.987L367.078 153.83L366.636 148.882H360.398L361.266 158.621L373.973 162.156H374.002L374.014 155.696Z" fill="#EBEBEB"/>
<path d="M360.891 102.948H368.403V106.091H364.031V109.233H368.403V112.376H360.891V102.948ZM369.918 102.948H377.43V105.681H373.048V106.228H377.42V112.512H369.906V109.643H374.278V109.097H369.906V102.948H369.918ZM378.945 102.948H386.457V105.681H382.063V106.228H386.435V112.512H378.921V109.643H383.293V109.097H378.921V102.948H378.945Z" fill="black"/>
<path d="M388.401 139.586L389.521 127.031H373.973V133.233H382.714L382.151 139.576H373.973V145.778H381.612L380.88 153.83L373.973 155.701V162.154L386.689 158.629L386.781 157.579L388.245 141.248L388.396 139.581L388.401 139.586Z" fill="white"/>
<path d="M122.471 193.876C121.599 193.577 120.721 193.301 119.836 193.046C119.982 192.45 120.118 191.851 120.243 191.248C122.237 181.565 120.933 173.765 116.48 171.198C112.21 168.734 105.226 171.303 98.1707 177.44C97.4752 178.048 96.7959 178.671 96.1329 179.31C95.6877 178.884 95.2355 178.467 94.7762 178.058C87.3853 171.494 79.9812 168.729 75.5264 171.304C71.26 173.774 69.9941 181.107 71.7921 190.284C71.9678 191.193 72.1693 192.096 72.3967 192.995C71.3496 193.292 70.3366 193.61 69.3671 193.948C60.7012 196.964 55.1663 201.706 55.1663 206.617C55.1663 211.69 61.1082 216.778 70.1351 219.863C70.8674 220.112 71.6051 220.343 72.348 220.556C72.1074 221.522 71.8931 222.496 71.7052 223.478C69.9928 232.495 71.3311 239.656 75.5857 242.11C79.9812 244.647 87.3576 242.039 94.5391 235.761C95.1068 235.264 95.6759 234.737 96.2515 234.187C96.9698 234.88 97.707 235.552 98.4631 236.205C105.421 242.191 112.294 244.61 116.543 242.148C120.933 239.607 122.36 231.914 120.508 222.557C120.367 221.842 120.204 221.113 120.017 220.369C120.536 220.216 121.043 220.058 121.539 219.894C130.923 216.785 137.03 211.758 137.03 206.617C137.03 201.687 131.316 196.92 122.475 193.876H122.471Z" fill="#53C1DE"/>
<path d="M120.436 216.574C119.988 216.723 119.529 216.865 119.06 217.005C117.916 213.458 116.531 209.993 114.915 206.635C116.47 203.321 117.801 199.907 118.9 196.416C119.736 196.658 120.55 196.914 121.333 197.184C128.908 199.79 133.529 203.646 133.529 206.617C133.529 209.779 128.538 213.89 120.436 216.574ZM117.074 223.237C117.893 227.374 118.009 231.115 117.469 234.038C116.982 236.666 116.002 238.418 114.79 239.12C112.21 240.612 106.693 238.672 100.743 233.552C100.061 232.964 99.3746 232.339 98.6844 231.675C101.165 228.929 103.457 226.018 105.546 222.963C109.276 222.647 112.981 222.075 116.633 221.25C116.8 221.925 116.948 222.583 117.077 223.226L117.074 223.237ZM83.0741 238.864C80.5529 239.755 78.5455 239.78 77.3323 239.08C74.7506 237.59 73.6771 231.836 75.1418 224.13C75.3174 223.219 75.5163 222.313 75.7385 221.412C79.3755 222.193 83.0611 222.727 86.7702 223.01C88.9197 226.055 91.2672 228.954 93.7975 231.691C93.2891 232.183 92.7692 232.662 92.2379 233.128C89.0621 235.904 85.8784 237.87 83.0741 238.864ZM71.2666 216.555C67.2741 215.19 63.9784 213.417 61.7181 211.483C59.6882 209.745 58.6635 208.018 58.6635 206.617C58.6635 203.637 63.1077 199.834 70.5184 197.251C71.4492 196.927 72.3884 196.631 73.3359 196.364C74.4366 199.894 75.7695 203.348 77.3257 206.702C75.7501 210.104 74.401 213.607 73.2872 217.187C72.6075 216.993 71.9339 216.782 71.2666 216.555ZM75.2248 189.612C73.6863 181.75 74.7071 175.818 77.2783 174.333C80.0168 172.752 86.072 175.007 92.4553 180.675C92.8636 181.037 93.2732 181.417 93.6829 181.808C91.1707 184.527 88.8416 187.41 86.7109 190.438C83.0368 190.768 79.388 191.335 75.7872 192.136C75.5774 191.3 75.3899 190.459 75.2248 189.614V189.612ZM110.541 198.331C109.741 196.949 108.911 195.584 108.052 194.237C110.664 194.568 113.166 195.005 115.516 195.542C114.762 197.934 113.887 200.287 112.896 202.591C112.14 201.155 111.355 199.735 110.541 198.331ZM96.1356 184.307C97.8378 186.162 99.4456 188.103 100.953 190.121C97.7289 189.969 94.504 189.969 91.2777 190.121C92.8675 188.024 94.4969 186.074 96.1356 184.308V184.307ZM81.6462 198.355C80.8427 199.748 80.0721 201.159 79.3345 202.588C78.3163 200.174 77.4456 197.799 76.7343 195.505C79.0697 194.979 81.5606 194.556 84.1555 194.23C83.2844 195.586 82.4471 196.961 81.6436 198.355H81.6462ZM84.2293 219.252C81.6965 218.977 79.1795 218.572 76.6882 218.039C77.4114 215.706 78.3018 213.28 79.3424 210.813C80.0827 212.243 80.8559 213.655 81.662 215.049C82.4822 216.471 83.3371 217.872 84.2266 219.252H84.2293ZM96.2343 229.175C94.5747 227.391 92.9215 225.415 91.3093 223.28C92.8768 223.343 94.4732 223.374 96.0987 223.374C97.7671 223.374 99.4141 223.337 101.04 223.263C99.5391 225.315 97.9344 227.288 96.2317 229.175H96.2343ZM112.922 210.688C113.965 213.038 114.885 215.441 115.678 217.888C113.156 218.455 110.606 218.89 108.038 219.19C108.903 217.818 109.741 216.429 110.551 215.024C111.375 213.596 112.165 212.151 112.922 210.688ZM107.522 213.277C106.282 215.431 104.973 217.542 103.595 219.613C101.166 219.787 98.6567 219.877 96.0987 219.877C93.5406 219.877 91.0735 219.798 88.6867 219.642C87.2738 217.578 85.9394 215.463 84.6837 213.297C83.4279 211.131 82.264 208.932 81.1918 206.7C82.2692 204.459 83.4297 202.259 84.6732 200.101C85.9148 197.945 87.2378 195.837 88.6419 193.779C91.0774 193.594 93.5723 193.498 96.096 193.498C98.6198 193.498 101.13 193.596 103.563 193.78C104.952 195.832 106.269 197.931 107.515 200.078C108.761 202.224 109.937 204.413 111.044 206.646C109.95 208.896 108.778 211.105 107.525 213.272L107.522 213.277ZM114.736 174.227C117.477 175.808 118.543 182.183 116.821 190.544C116.708 191.087 116.585 191.629 116.452 192.17C112.846 191.353 109.19 190.775 105.508 190.441C103.397 187.41 101.086 184.525 98.5882 181.805C99.2029 181.213 99.8303 180.638 100.47 180.078C106.514 174.819 112.162 172.743 114.736 174.227Z" fill="white"/>
<path d="M96.0961 199.307C97.5419 199.307 98.9554 199.736 100.158 200.539C101.36 201.342 102.297 202.484 102.85 203.82C103.403 205.156 103.548 206.626 103.266 208.044C102.984 209.462 102.288 210.764 101.265 211.787C100.243 212.809 98.9404 213.505 97.5223 213.787C96.1042 214.07 94.6343 213.925 93.2984 213.371C91.9626 212.818 90.8209 211.881 90.0176 210.679C89.2143 209.477 88.7855 208.063 88.7855 206.617C88.7853 205.657 88.9743 204.707 89.3416 203.82C89.709 202.933 90.2475 202.127 90.9263 201.448C91.6052 200.769 92.4112 200.23 93.2982 199.863C94.1853 199.496 95.136 199.307 96.0961 199.307Z" fill="#53C1DE"/>
</g>
<path d="M348.151 27.6238L342.705 88.6316L318.223 95.4221L293.809 88.6316L288.369 27.6238H348.151Z" fill="#E44D26"/>
<path d="M318.259 90.2328L338.041 84.7503L342.687 32.6132H318.259V90.2328Z" fill="#F16529"/>
<path d="M307.672 47.5809H318.259V40.097H299.495L299.674 42.1056L301.515 62.7275H318.262V55.2435H308.359L307.672 47.5809ZM309.374 66.4694H301.868L302.916 78.2206L318.226 82.488H318.262V74.6788H318.23L309.896 72.4272L309.374 66.4694Z" fill="#EBEBEB"/>
<path d="M293.934 11.0406H297.737V14.7969H301.214V11.0406H305.017V22.4202H301.214V18.6103H297.737V22.4202H293.934V11.0406ZM310.017 14.8148H306.668V11.0406H317.169V14.8148H313.82V22.4202H310.021V14.8148H310.017ZM318.838 11.0406H322.805L325.246 15.0399L327.683 11.0406H331.65V22.4202H327.862V16.7805L325.246 20.8262H325.181L322.562 16.7805V22.4202H318.838V11.0406ZM333.541 11.0406H337.344V18.6568H342.705V22.4166H333.552V11.0406H333.541Z" fill="black"/>
<path d="M318.234 62.7275H327.447L326.579 72.4344L318.234 74.686V82.488L333.577 78.235L333.688 76.9698L335.446 57.2665L335.628 55.2579H318.234V62.7418V62.7275ZM318.234 47.5631V47.581H336.311L336.461 45.8976L336.818 42.1021L336.997 40.0935H318.234V47.5595V47.5631Z" fill="white"/>
<path d="M150.494 12.1179H221.134V82.7521H150.494V12.1179Z" fill="#F7DF1E"/>
<path d="M169.071 71.1457L174.477 67.8737C175.521 69.7231 176.469 71.2879 178.745 71.2879C180.927 71.2879 182.301 70.4344 182.301 67.1167V44.5455H188.939V67.208C188.939 74.0822 184.913 77.2119 179.029 77.2119C173.72 77.2119 170.639 74.4606 169.074 71.143L169.071 71.1457ZM192.544 70.4317L197.948 67.3019C199.37 69.6264 201.22 71.3282 204.492 71.3282C207.243 71.3282 208.996 69.9539 208.996 68.0562C208.996 65.78 207.195 64.9748 204.164 63.6461L202.505 62.9348C197.717 60.8975 194.539 58.3368 194.539 52.9308C194.539 47.9517 198.331 44.1589 204.258 44.1589C208.478 44.1589 211.505 45.6299 213.693 49.4682L208.526 52.7886C207.388 50.7486 206.156 49.9433 204.258 49.9433C202.315 49.9433 201.08 51.1754 201.08 52.7886C201.08 54.7802 202.312 55.5855 205.157 56.8148L206.816 57.5262C212.453 59.9419 215.636 62.4087 215.636 67.9569C215.636 73.9319 210.942 77.2039 204.631 77.2039C198.458 77.2039 194.485 74.2513 192.552 70.4236" fill="black"/>
<path d="M115.538 138.024H0.951172V138.721H115.538V138.024Z" fill="black"/>
<path d="M38.8653 113.693H55.3917V115.006H40.3802V124.892H54.4965V126.206H40.3802V137.06H55.5638V138.374H38.8653L38.8653 113.693ZM56.8721 113.693H58.6281L66.4092 124.547L74.3626 113.693L85.1804 99.9058L67.4077 125.688L76.5661 138.374H74.7413L66.4092 126.828L58.0428 138.374H56.2524L65.4796 125.688L56.8721 113.693ZM77.2203 115.006V113.693H96.0535V115.006H87.3771V138.374H85.8622V115.006H77.2203ZM18.1901 113.693H20.0837L46.196 152.767L35.4051 138.374L19.7738 115.559L19.705 138.374H18.1901V113.693ZM95.9008 136.664C95.7917 136.665 95.6847 136.634 95.5932 136.575C95.5017 136.516 95.43 136.43 95.3871 136.33C95.3442 136.23 95.3322 136.119 95.3525 136.012C95.3728 135.904 95.4245 135.806 95.501 135.728C95.5776 135.65 95.6756 135.597 95.7824 135.575C95.8893 135.553 96.0003 135.564 96.1012 135.605C96.2021 135.647 96.2885 135.717 96.3492 135.808C96.41 135.898 96.4425 136.005 96.4425 136.114C96.4444 136.186 96.4318 136.258 96.4053 136.325C96.3789 136.392 96.3392 136.453 96.2886 136.504C96.2381 136.555 96.1776 136.596 96.111 136.623C96.0444 136.651 95.9729 136.664 95.9008 136.664ZM97.3894 135.217H98.2C98.2111 135.656 98.5316 135.952 99.0033 135.952C99.5302 135.952 99.8286 135.634 99.8286 135.04V131.277H100.654V135.044C100.654 136.114 100.035 136.73 99.0106 136.73C98.049 136.73 97.3894 136.132 97.3894 135.217ZM101.734 135.169H102.552C102.622 135.675 103.115 135.996 103.826 135.996C104.49 135.996 104.976 135.653 104.976 135.18C104.976 134.775 104.667 134.531 103.963 134.365L103.277 134.199C102.316 133.974 101.877 133.509 101.877 132.727C101.877 131.779 102.651 131.148 103.812 131.148C104.891 131.148 105.68 131.779 105.728 132.675H104.924C104.847 132.185 104.42 131.878 103.801 131.878C103.148 131.878 102.714 132.192 102.714 132.672C102.714 133.052 102.994 133.269 103.686 133.432L104.272 133.576C105.363 133.83 105.812 134.273 105.812 135.073C105.812 136.092 105.024 136.73 103.764 136.73C102.585 136.73 101.793 136.121 101.734 135.169Z" fill="black"/>
<defs>
<linearGradient id="paint0_linear" x1="371.078" y1="324.568" x2="371.078" y2="291.331" gradientUnits="userSpaceOnUse">
<stop stop-color="#808080" stop-opacity="0.25"/>
<stop offset="0.53514" stop-color="#808080" stop-opacity="0.12"/>
<stop offset="1" stop-color="#808080" stop-opacity="0.1"/>
</linearGradient>
<linearGradient id="paint1_linear" x1="76703.4" y1="125101" x2="76703.4" y2="22981.3" gradientUnits="userSpaceOnUse">
<stop stop-color="#808080" stop-opacity="0.25"/>
<stop offset="0.53514" stop-color="#808080" stop-opacity="0.12"/>
<stop offset="1" stop-color="#808080" stop-opacity="0.1"/>
</linearGradient>
<linearGradient id="paint2_linear" x1="72805.6" y1="53255.8" x2="72805.6" y2="32767" gradientUnits="userSpaceOnUse">
<stop stop-color="#808080" stop-opacity="0.25"/>
<stop offset="0.53514" stop-color="#808080" stop-opacity="0.12"/>
<stop offset="1" stop-color="#808080" stop-opacity="0.1"/>
</linearGradient>
<clipPath id="clip0">
<rect width="351.694" height="239.666" fill="white" transform="translate(57.8591 100.256)"/>
</clipPath>
</defs>
</svg>
