<svg width="925" height="871" viewBox="0 0 925 871" fill="none" xmlns="http://www.w3.org/2000/svg">
<g clip-path="url(#clip0)">
<path d="M519.997 246.5H379.997V248.5H519.997V246.5Z" fill="black"/>
<path d="M419.997 228.5H417.997V247H419.997V228.5Z" fill="black"/>
<path d="M480.997 228.5H478.997V247H480.997V228.5Z" fill="black"/>
<path d="M645.997 712.5H643.997V731H645.997V712.5Z" fill="#F2F2F2"/>
<path d="M652.997 407.5H650.997V426H652.997V407.5Z" fill="#F2F2F2"/>
<path d="M713.997 407.5H711.997V426H713.997V407.5Z" fill="#F2F2F2"/>
<path d="M652.997 335.5H650.997V354H652.997V335.5Z" fill="black"/>
<path d="M713.997 335.5H711.997V354H713.997V335.5Z" fill="#F2F2F2"/>
<path d="M445.997 363.5H305.997V365.5H445.997V363.5Z" fill="black"/>
<path d="M345.997 345.5H343.997V364H345.997V345.5Z" fill="black"/>
<path d="M406.997 345.5H404.997V364H406.997V345.5Z" fill="black"/>
<path d="M343.997 316.5H203.997V318.5H343.997V316.5Z" fill="black"/>
<path d="M243.997 298.5H241.997V317H243.997V298.5Z" fill="#F2F2F2"/>
<path d="M304.997 298.5H302.997V317H304.997V298.5Z" fill="#F2F2F2"/>
<path d="M280.997 501.5H140.997V503.5H280.997V501.5Z" fill="black"/>
<path d="M582.997 501.5H722.997V503.5H582.997V501.5Z" fill="black"/>
<path d="M180.997 483.5H178.997V502H180.997V483.5Z" fill="black"/>
<path d="M682.997 483.5H684.997V502H682.997V483.5Z" fill="black"/>
<path d="M241.997 483.5H239.997V502H241.997V483.5Z" fill="#F2F2F2"/>
<path d="M210.997 705.5H70.997V707.5H210.997V705.5Z" fill="black"/>
<path d="M652.997 705.5H792.997V707.5H652.997V705.5Z" fill="black"/>
<path d="M110.997 687.5H108.997V706H110.997V687.5Z" fill="#F2F2F2"/>
<path d="M171.997 687.5H169.997V706H171.997V687.5Z" fill="black"/>
<path d="M691.997 687.5H693.997V706H691.997V687.5Z" fill="black"/>
<path d="M451 433C459.837 433 467 425.837 467 417C467 408.163 459.837 401 451 401C442.163 401 435 408.163 435 417C435 425.837 442.163 433 451 433Z" fill="#FAC722"/>
<path d="M153.997 343.5H13.997V345.5H153.997V343.5Z" fill="black"/>
<path d="M115.997 345H113.997V363.5H115.997V345Z" fill="black"/>
<path d="M54.997 345H52.997V363.5H54.997V345Z" fill="#F2F2F2"/>
<path d="M162.997 605.5H22.997V607.5H162.997V605.5Z" fill="black"/>
<path d="M700.997 605.5H840.997V607.5H700.997V605.5Z" fill="black"/>
<path d="M124.997 607H122.997V625.5H124.997V607Z" fill="black"/>
<path d="M738.997 607H740.997V625.5H738.997V607Z" fill="black"/>
<path d="M63.997 607H61.997V625.5H63.997V607Z" fill="#F2F2F2"/>
<path d="M603.997 278.5H463.997V280.5H603.997V278.5Z" fill="black"/>
<path d="M163 482H23V480H163V482Z" fill="black"/>
<path d="M565.997 280H563.997V298.5H565.997V280Z" fill="black"/>
<path d="M125 480.5H123V462H125V480.5Z" fill="black"/>
<path d="M504.997 280H502.997V298.5H504.997V280Z" fill="black"/>
<path d="M64 480.5H62V462H64V480.5Z" fill="black"/>
<path d="M210.997 417.5H70.997V419.5H210.997V417.5Z" fill="black"/>
<path d="M110.997 399.5H108.997V418H110.997V399.5Z" fill="#F2F2F2"/>
<path d="M171.997 399.5H169.997V418H171.997V399.5Z" fill="black"/>
<path d="M233.497 398V869H669.497V398H233.497ZM451.497 432C448.53 432 445.63 431.12 443.163 429.472C440.697 427.824 438.774 425.481 437.639 422.74C436.504 419.999 436.206 416.983 436.785 414.074C437.364 411.164 438.793 408.491 440.89 406.393C442.988 404.296 445.661 402.867 448.571 402.288C451.48 401.709 454.496 402.007 457.237 403.142C459.978 404.277 462.321 406.2 463.969 408.666C465.617 411.133 466.497 414.033 466.497 417C466.497 420.978 464.917 424.794 462.104 427.607C459.291 430.42 455.475 432 451.497 432Z" fill="#3F3D56"/>
<path d="M160.255 828.797C167.169 854.356 190.851 870.184 190.851 870.184C190.851 870.184 203.323 844.575 196.409 819.017C189.495 793.459 165.813 777.63 165.813 777.63C165.813 777.63 153.341 803.239 160.255 828.797Z" fill="#FAC722"/>
<path d="M170.415 823.305C189.387 841.773 191.704 870.164 191.704 870.164C191.704 870.164 163.261 868.611 144.289 850.142C125.317 831.674 123 803.283 123 803.283C123 803.283 151.443 804.836 170.415 823.305Z" fill="#1686E2"/>
<path d="M925 868H116V870H925V868Z" fill="#3F3D56"/>
<path d="M510.997 496.5H281.997C280.14 496.5 278.36 495.763 277.047 494.45C275.735 493.137 274.997 491.357 274.997 489.5C274.997 487.643 275.735 485.863 277.047 484.55C278.36 483.238 280.14 482.5 281.997 482.5H510.997C512.854 482.5 514.634 483.238 515.947 484.55C517.26 485.863 517.997 487.643 517.997 489.5C517.997 491.357 517.26 493.137 515.947 494.45C514.634 495.763 512.854 496.5 510.997 496.5Z" fill="#FAC722"/>
<path d="M510.997 568.5H281.997C280.14 568.5 278.36 567.763 277.047 566.45C275.735 565.137 274.997 563.357 274.997 561.5C274.997 559.643 275.735 557.863 277.047 556.55C278.36 555.238 280.14 554.5 281.997 554.5H510.997C512.854 554.5 514.634 555.238 515.947 556.55C517.26 557.863 517.997 559.643 517.997 561.5C517.997 563.357 517.26 565.137 515.947 566.45C514.634 567.763 512.854 568.5 510.997 568.5Z" fill="#FAC722"/>
<path d="M510.997 640.5H281.997C280.14 640.5 278.36 639.763 277.047 638.45C275.735 637.137 274.997 635.357 274.997 633.5C274.997 631.643 275.735 629.863 277.047 628.55C278.36 627.238 280.14 626.5 281.997 626.5H510.997C512.854 626.5 514.634 627.238 515.947 628.55C517.26 629.863 517.997 631.643 517.997 633.5C517.997 635.357 517.26 637.137 515.947 638.45C514.634 639.763 512.854 640.5 510.997 640.5Z" fill="#FAC722"/>
<path d="M510.997 712.5H281.997C280.14 712.5 278.36 711.763 277.047 710.45C275.735 709.137 274.997 707.357 274.997 705.5C274.997 703.643 275.735 701.863 277.047 700.55C278.36 699.238 280.14 698.5 281.997 698.5H510.997C512.854 698.5 514.634 699.238 515.947 700.55C517.26 701.863 517.997 703.643 517.997 705.5C517.997 707.357 517.26 709.137 515.947 710.45C514.634 711.763 512.854 712.5 510.997 712.5Z" fill="#FAC722"/>
<path d="M510.997 784.5H281.997C280.14 784.5 278.36 783.763 277.047 782.45C275.735 781.137 274.997 779.357 274.997 777.5C274.997 775.643 275.735 773.863 277.047 772.55C278.36 771.238 280.14 770.5 281.997 770.5H510.997C512.854 770.5 514.634 771.238 515.947 772.55C517.26 773.863 517.997 775.643 517.997 777.5C517.997 779.357 517.26 781.137 515.947 782.45C514.634 783.763 512.854 784.5 510.997 784.5Z" fill="#FAC722"/>
<path d="M451.686 497H280.314C278.639 497 277.033 496.263 275.849 494.95C274.665 493.637 274 491.857 274 490C274 488.143 274.665 486.363 275.849 485.05C277.033 483.738 278.639 483 280.314 483H451.686C453.361 483 454.967 483.738 456.151 485.05C457.335 486.363 458 488.143 458 490C458 491.857 457.335 493.637 456.151 494.95C454.967 496.263 453.361 497 451.686 497Z" fill="#1686E2"/>
<path d="M411.997 568.5H280.997C279.14 568.5 277.36 567.763 276.047 566.45C274.735 565.137 273.997 563.357 273.997 561.5C273.997 559.643 274.735 557.863 276.047 556.55C277.36 555.238 279.14 554.5 280.997 554.5H411.997C413.854 554.5 415.634 555.238 416.947 556.55C418.26 557.863 418.997 559.643 418.997 561.5C418.997 563.357 418.26 565.137 416.947 566.45C415.634 567.763 413.854 568.5 411.997 568.5Z" fill="#1686E2"/>
<path d="M433.123 641H290.877C286.401 641 282.108 640.263 278.943 638.95C275.778 637.637 274 635.857 274 634C274 632.143 275.778 630.363 278.943 629.05C282.108 627.738 286.401 627 290.877 627H433.123C437.599 627 441.892 627.738 445.057 629.05C448.222 630.363 450 632.143 450 634C450 635.857 448.222 637.637 445.057 638.95C441.892 640.263 437.599 641 433.123 641Z" fill="#1686E2"/>
<path d="M488.997 712.5H280.997C279.14 712.5 277.36 711.763 276.047 710.45C274.735 709.137 273.997 707.357 273.997 705.5C273.997 703.643 274.735 701.863 276.047 700.55C277.36 699.238 279.14 698.5 280.997 698.5H488.997C490.854 698.5 492.634 699.238 493.947 700.55C495.26 701.863 495.997 703.643 495.997 705.5C495.997 707.357 495.26 709.137 493.947 710.45C492.634 711.763 490.854 712.5 488.997 712.5Z" fill="#1686E2"/>
<path d="M442.997 784.5H280.997C279.14 784.5 277.36 783.763 276.047 782.45C274.735 781.137 273.997 779.357 273.997 777.5C273.997 775.643 274.735 773.863 276.047 772.55C277.36 771.238 279.14 770.5 280.997 770.5H442.997C444.854 770.5 446.634 771.238 447.947 772.55C449.26 773.863 449.997 775.643 449.997 777.5C449.997 779.357 449.26 781.137 447.947 782.45C446.634 783.763 444.854 784.5 442.997 784.5Z" fill="#1686E2"/>
<path d="M605.997 482.5H603.997V496.5H605.997V482.5Z" fill="#1686E2"/>
<path d="M620.997 497.5C619.415 497.5 617.868 497.031 616.552 496.152C615.237 495.273 614.211 494.023 613.606 492.561C613 491.1 612.842 489.491 613.151 487.939C613.459 486.387 614.221 484.962 615.34 483.843C616.459 482.724 617.884 481.962 619.436 481.654C620.988 481.345 622.597 481.503 624.058 482.109C625.52 482.714 626.77 483.74 627.649 485.055C628.528 486.371 628.997 487.918 628.997 489.5C628.994 491.621 628.151 493.654 626.651 495.154C625.151 496.654 623.118 497.498 620.997 497.5ZM620.997 483.5C619.81 483.5 618.65 483.852 617.664 484.511C616.677 485.17 615.908 486.108 615.454 487.204C615 488.3 614.881 489.507 615.112 490.671C615.344 491.834 615.915 492.904 616.754 493.743C617.593 494.582 618.662 495.153 619.826 495.385C620.99 495.616 622.197 495.497 623.293 495.043C624.389 494.589 625.326 493.82 625.986 492.833C626.645 491.847 626.997 490.687 626.997 489.5C626.995 487.909 626.362 486.384 625.238 485.259C624.113 484.134 622.588 483.502 620.997 483.5Z" fill="#1686E2"/>
<path d="M605.997 554.5H603.997V568.5H605.997V554.5Z" fill="#1686E2"/>
<path d="M620.997 569.5C619.415 569.5 617.868 569.031 616.552 568.152C615.237 567.273 614.211 566.023 613.606 564.561C613 563.1 612.842 561.491 613.151 559.939C613.459 558.387 614.221 556.962 615.34 555.843C616.459 554.724 617.884 553.962 619.436 553.654C620.988 553.345 622.597 553.503 624.058 554.109C625.52 554.714 626.77 555.74 627.649 557.055C628.528 558.371 628.997 559.918 628.997 561.5C628.994 563.621 628.151 565.654 626.651 567.154C625.151 568.654 623.118 569.498 620.997 569.5ZM620.997 555.5C619.81 555.5 618.65 555.852 617.664 556.511C616.677 557.17 615.908 558.108 615.454 559.204C615 560.3 614.881 561.507 615.112 562.671C615.344 563.834 615.915 564.904 616.754 565.743C617.593 566.582 618.662 567.153 619.826 567.385C620.99 567.616 622.197 567.497 623.293 567.043C624.389 566.589 625.326 565.82 625.986 564.833C626.645 563.847 626.997 562.687 626.997 561.5C626.995 559.909 626.362 558.384 625.238 557.259C624.113 556.134 622.588 555.502 620.997 555.5Z" fill="#1686E2"/>
<path d="M605.997 626.5H603.997V640.5H605.997V626.5Z" fill="#1686E2"/>
<path d="M620.997 641.5C619.415 641.5 617.868 641.031 616.552 640.152C615.237 639.273 614.211 638.023 613.606 636.561C613 635.1 612.842 633.491 613.151 631.939C613.459 630.387 614.221 628.962 615.34 627.843C616.459 626.724 617.884 625.962 619.436 625.654C620.988 625.345 622.597 625.503 624.058 626.109C625.52 626.714 626.77 627.74 627.649 629.055C628.528 630.371 628.997 631.918 628.997 633.5C628.994 635.621 628.151 637.654 626.651 639.154C625.151 640.654 623.118 641.498 620.997 641.5ZM620.997 627.5C619.81 627.5 618.65 627.852 617.664 628.511C616.677 629.17 615.908 630.108 615.454 631.204C615 632.3 614.881 633.507 615.112 634.671C615.344 635.834 615.915 636.904 616.754 637.743C617.593 638.582 618.662 639.153 619.826 639.385C620.99 639.616 622.197 639.497 623.293 639.043C624.389 638.589 625.326 637.82 625.986 636.833C626.645 635.847 626.997 634.687 626.997 633.5C626.995 631.909 626.362 630.384 625.238 629.259C624.113 628.134 622.588 627.502 620.997 627.5Z" fill="#1686E2"/>
<path d="M605.997 698.5H603.997V712.5H605.997V698.5Z" fill="#1686E2"/>
<path d="M620.997 713.5C619.415 713.5 617.868 713.031 616.552 712.152C615.237 711.273 614.211 710.023 613.606 708.561C613 707.1 612.842 705.491 613.151 703.939C613.459 702.387 614.221 700.962 615.34 699.843C616.459 698.724 617.884 697.962 619.436 697.654C620.988 697.345 622.597 697.503 624.058 698.109C625.52 698.714 626.77 699.74 627.649 701.055C628.528 702.371 628.997 703.918 628.997 705.5C628.994 707.621 628.151 709.654 626.651 711.154C625.151 712.654 623.118 713.498 620.997 713.5ZM620.997 699.5C619.81 699.5 618.65 699.852 617.664 700.511C616.677 701.17 615.908 702.108 615.454 703.204C615 704.3 614.881 705.507 615.112 706.671C615.344 707.834 615.915 708.904 616.754 709.743C617.593 710.582 618.662 711.153 619.826 711.385C620.99 711.616 622.197 711.497 623.293 711.043C624.389 710.589 625.326 709.82 625.986 708.833C626.645 707.847 626.997 706.687 626.997 705.5C626.995 703.909 626.362 702.384 625.238 701.259C624.113 700.134 622.588 699.502 620.997 699.5Z" fill="#1686E2"/>
<path d="M605.997 770.5H603.997V784.5H605.997V770.5Z" fill="#1686E2"/>
<path d="M620.997 785.5C619.415 785.5 617.868 785.031 616.552 784.152C615.237 783.273 614.211 782.023 613.606 780.561C613 779.1 612.842 777.491 613.151 775.939C613.459 774.387 614.221 772.962 615.34 771.843C616.459 770.724 617.884 769.962 619.436 769.654C620.988 769.345 622.597 769.503 624.058 770.109C625.52 770.714 626.77 771.74 627.649 773.055C628.528 774.371 628.997 775.918 628.997 777.5C628.994 779.621 628.151 781.654 626.651 783.154C625.151 784.654 623.118 785.498 620.997 785.5ZM620.997 771.5C619.81 771.5 618.65 771.852 617.664 772.511C616.677 773.17 615.908 774.108 615.454 775.204C615 776.3 614.881 777.507 615.112 778.671C615.344 779.834 615.915 780.904 616.754 781.743C617.593 782.582 618.662 783.153 619.826 783.385C620.99 783.616 622.197 783.497 623.293 783.043C624.389 782.589 625.326 781.82 625.986 780.833C626.645 779.847 626.997 778.687 626.997 777.5C626.995 775.909 626.362 774.384 625.238 773.259C624.113 772.134 622.588 771.502 620.997 771.5Z" fill="#1686E2"/>
<path d="M620.997 493.5C623.206 493.5 624.997 491.709 624.997 489.5C624.997 487.291 623.206 485.5 620.997 485.5C618.788 485.5 616.997 487.291 616.997 489.5C616.997 491.709 618.788 493.5 620.997 493.5Z" fill="#1686E2"/>
<path d="M620.997 709.5C623.206 709.5 624.997 707.709 624.997 705.5C624.997 703.291 623.206 701.5 620.997 701.5C618.788 701.5 616.997 703.291 616.997 705.5C616.997 707.709 618.788 709.5 620.997 709.5Z" fill="#1686E2"/>
<path d="M620.997 781.5C623.206 781.5 624.997 779.709 624.997 777.5C624.997 775.291 623.206 773.5 620.997 773.5C618.788 773.5 616.997 775.291 616.997 777.5C616.997 779.709 618.788 781.5 620.997 781.5Z" fill="#1686E2"/>
<path d="M451.497 424C455.363 424 458.497 420.866 458.497 417C458.497 413.134 455.363 410 451.497 410C447.631 410 444.497 413.134 444.497 417C444.497 420.866 447.631 424 451.497 424Z" fill="#3F3D56"/>
</g>
<path d="M888.073 446.252H648.282V449.678H888.073V446.252Z" fill="#F2F2F2"/>
<path d="M716.794 415.422H713.368V447.109H716.794V415.422Z" fill="#F2F2F2"/>
<path d="M821.274 415.422H817.849V447.109H821.274V415.422Z" fill="#F2F2F2"/>
<path d="M752.762 229.583H749.337V261.27H752.762V229.583Z" fill="#F2F2F2"/>
<path d="M648.282 229.583H644.856V261.27H648.282V229.583Z" fill="#F2F2F2"/>
<path d="M860.012 425.663V468.097C860.012 468.097 870.227 536.463 870.227 596.186C870.227 655.908 853.725 794.998 853.725 794.998C853.725 794.998 820.721 806.785 818.363 788.712C816.006 770.638 809.719 674.768 809.719 660.623C809.719 646.478 782.215 538.821 782.215 538.821L764.927 658.265C764.927 658.265 770.428 799.713 764.927 803.642C759.427 807.571 732.709 814.643 729.566 807.571C726.422 800.499 709.92 648.836 709.92 648.836C709.92 648.836 696.561 450.809 704.419 439.022C712.278 427.234 719.35 417.805 719.35 417.805C719.35 417.805 831.722 390.301 860.012 425.663Z" fill="#2F2E41"/>
<path d="M849.796 790.282L851.767 803.092C852.427 807.462 852.856 811.863 853.054 816.279C853.361 822.713 854.432 832.628 858.099 834.199C863.6 836.557 899.302 866.667 874.156 868.238C849.01 869.81 836.43 872.525 828.982 866.742C820.176 859.906 830.15 863.001 826.221 863.001C822.292 863.001 817.577 863.001 816.006 856.714C814.434 850.428 818.363 839.426 818.363 839.426V790.282H849.796Z" fill="#2F2E41"/>
<path d="M732.462 789.667L730.492 802.477C729.832 806.847 729.402 811.248 729.204 815.663C728.897 822.098 727.826 832.012 724.159 833.584C718.658 835.942 682.956 866.052 708.102 867.623C733.248 869.195 745.828 871.91 753.277 866.127C762.083 859.29 752.108 862.386 756.037 862.386C759.966 862.386 764.681 862.386 766.253 856.099C767.824 849.813 763.895 838.811 763.895 838.811V789.667H732.462Z" fill="#2F2E41"/>
<path d="M754.712 84.6162C754.712 84.6162 768.071 117.621 777.5 123.121C786.93 128.622 782.215 153.768 782.215 153.768L758.641 186.773H739.781L716.992 147.482C716.992 147.482 715.421 121.55 710.706 115.263C705.991 108.977 754.712 84.6162 754.712 84.6162Z" fill="#FDA57D"/>
<path d="M774.357 152.197L809.719 160.055L835.651 420.948C835.651 420.948 821.506 423.305 807.362 442.165C793.217 461.024 775.929 457.881 767.285 453.166C758.641 448.451 724.065 435.092 723.279 429.591C722.493 424.091 724.851 327.435 724.851 327.435L702.848 176.558L713.849 160.055H733.494L749.211 173.414L774.357 152.197Z" fill="#1686E2"/>
<path d="M779.858 138.838C779.858 138.838 856.868 146.696 863.941 163.198C871.013 179.7 859.226 252.782 859.226 252.782C859.226 252.782 887.515 316.433 886.729 331.364C885.944 346.294 913.447 448.451 883.586 436.664C853.725 424.876 863.155 394.229 848.224 416.232C833.294 438.235 827.007 435.092 827.007 435.092C827.007 435.092 812.077 459.452 807.362 457.095C802.647 454.737 799.504 436.663 809.719 428.019C819.935 419.375 818.363 404.445 798.718 376.155C779.072 347.866 758.641 199.346 770.428 176.557C782.215 153.768 779.858 138.838 779.858 138.838Z" fill="#575A89"/>
<path d="M860.012 440.593L846.652 453.166L830.15 442.165L837.224 425.662L860.012 440.593Z" fill="#FDA57D"/>
<path d="M723.279 152.197C723.279 152.197 663.557 174.2 663.557 197.775C663.557 221.349 699.704 324.292 699.704 324.292C699.704 324.292 699.704 351.01 698.133 357.296C696.561 363.583 671.836 418.413 693.418 423.305C706.889 426.358 717.957 434.38 718.957 445.701C720.144 459.144 709.853 476.112 710.706 479.098C712.277 484.599 721.707 492.457 720.921 488.528C720.136 484.599 727.208 428.02 738.209 402.874C749.211 377.727 733.494 208.776 730.351 186.773C728.834 175.092 726.471 163.536 723.279 152.197Z" fill="#575A89"/>
<path d="M691.847 439.02L705.991 472.812L716.6 451.202L704.419 424.09L691.847 439.02Z" fill="#FDA57D"/>
<path d="M766.957 109.933C766.957 109.933 779.858 115.264 787.716 115.264C795.574 115.264 827.793 131.766 816.792 141.982C805.79 152.198 789.288 154.555 781.43 169.486C773.571 184.416 769.642 186.774 769.642 186.774L755.652 167.98C755.652 167.98 775.143 145.911 774.357 138.839C773.571 131.766 766.957 109.933 766.957 109.933Z" fill="#1686E2"/>
<path d="M714.87 128.826C714.87 128.826 705.205 132.551 702.848 138.838C700.49 145.124 685.56 156.912 691.846 160.055C698.133 163.198 725.636 175.771 731.137 178.129C736.638 180.486 746.889 171.44 746.889 171.44C746.889 171.44 733.102 163.591 733.102 158.09C733.102 152.59 714.87 128.826 714.87 128.826Z" fill="#1686E2"/>
<path d="M682.416 186.773L663.557 191.488C663.557 191.488 637.625 307.79 645.483 336.865C653.341 365.94 690.275 453.166 690.275 453.166L713.849 425.663C713.849 425.663 703.566 363.12 697.706 359.029C691.846 354.939 695.775 346.295 695.775 343.937C695.775 341.58 698.133 343.152 692.632 337.651C687.131 332.15 713.063 301.503 705.991 292.859C698.919 284.215 682.416 186.773 682.416 186.773Z" fill="#575A89"/>
<path opacity="0.1" d="M868.263 208.383L856.868 165.556C856.868 165.556 887.515 187.559 893.802 219.777C900.088 251.996 924.449 316.433 908.732 344.723C893.016 373.012 865.512 454.737 856.082 453.166C846.653 451.594 823.864 431.948 823.078 428.805C822.292 425.662 863.941 353.367 857.654 347.866C851.367 342.365 852.939 328.22 857.654 325.077C862.369 321.934 867.87 307.003 863.941 307.789C860.011 308.575 848.224 300.717 850.582 292.073C852.939 283.429 838.794 225.278 838.794 225.278L868.263 208.383Z" fill="black"/>
<path d="M852.939 160.056L863.941 163.199C863.941 163.199 894.588 185.202 900.874 217.42C907.161 249.639 931.521 314.076 915.805 342.366C900.088 370.655 872.585 452.38 863.155 450.809C853.725 449.237 830.936 429.592 830.15 426.448C829.365 423.305 871.013 351.01 864.726 345.509C858.44 340.008 860.011 325.864 864.726 322.72C869.441 319.577 874.942 304.646 871.013 305.432C867.084 306.218 855.297 298.36 857.654 289.716C860.011 281.072 845.867 222.921 845.867 222.921L852.939 160.056Z" fill="#575A89"/>
<path d="M729 819.5H764V830.5L727 830.5L729 819.5Z" fill="#FAC722"/>
<path d="M818.354 819.5H853.34L855.298 830.5H818.354L818.354 819.5Z" fill="#FAC722"/>
<path d="M731.943 134.864C758.773 134.864 780.523 112.873 780.523 85.7448C780.523 58.617 758.773 36.6255 731.943 36.6255C705.114 36.6255 683.364 58.617 683.364 85.7448C683.364 112.873 705.114 134.864 731.943 134.864Z" fill="#FDA57D"/>
<path d="M757.906 96.1446C761.48 96.1446 764.377 91.5915 764.377 85.9749C764.377 80.3583 761.48 75.8052 757.906 75.8052C754.332 75.8052 751.434 80.3583 751.434 85.9749C751.434 91.5915 754.332 96.1446 757.906 96.1446Z" fill="#FDA57D"/>
<path d="M780.708 87.8278L776.182 91.1676C771.428 101.249 766.205 105.57 755.358 112.505C731.305 106.987 716.031 118.524 716.031 118.524C702.458 123.2 697.584 119.457 689.301 105.716L686.602 103.557C688.491 113.642 694.688 124.874 704.408 130.573C714.127 136.272 726.279 138.366 738.24 136.402C750.202 134.438 761.012 128.574 768.337 120.076C775.662 111.578 782.23 97.9732 780.708 87.8278ZM735.444 122.515C726.566 123.873 719.135 123.452 718.848 121.574C718.56 119.695 725.525 117.071 734.403 115.712C743.281 114.353 750.711 114.775 750.998 116.653C751.286 118.532 744.322 121.156 735.444 122.515Z" fill="#72351C"/>
<path d="M678.563 64.929C678.289 59.815 679.235 54.7195 681.32 50.0705C687.575 36.1677 703.283 27.7806 707.398 13.0718C710.642 15.4918 710.927 20.9956 707.949 23.6925C716.035 20.5677 725.18 16.2797 727.203 7.77402C729.351 10.018 730.828 12.8258 731.464 15.8713C732.1 18.9167 731.867 22.0745 730.794 24.9776C730.957 30.4896 739.795 33.3204 750.886 31.7184C753.033 36.4491 751.77 42.1769 748.889 46.4481C746.008 50.7194 741.732 53.7995 737.443 56.6209C726.822 61.8475 684.495 89.7358 678.563 64.929Z" fill="#72351C"/>
<path d="M750.915 58.8007H727.56C727.56 58.8007 689.234 75.4888 686.839 78.3983C684.443 81.3077 689.234 105.716 689.234 105.716L686.839 104.528C683.134 91.8656 682.149 85.0321 684.443 73.8695L750.316 40.9847C754.729 40.5454 759.34 43.4205 774.27 58.8007C782.747 78.4485 782.527 84.0681 780.258 92.0572C773.43 91.7787 773.082 86.9001 771.874 78.9921L750.915 58.8007Z" fill="#72351C"/>
<defs>
<clipPath id="clip0">
<rect width="925.497" height="645.184" fill="white" transform="translate(0 225)"/>
</clipPath>
</defs>
</svg>
