<svg width="851" height="823" viewBox="0 0 851 823" fill="none" xmlns="http://www.w3.org/2000/svg">
<g clip-path="url(#clip0)">
<path d="M577.469 438.673H31.3107V440.61H577.469V438.673Z" fill="#3F3D56"/>
<path d="M625.717 95H0V399.542H625.717V95Z" fill="#3F3D56"/>
<path opacity="0.1" d="M625.717 118.426V110.06H606.477V95H598.112V110.06H27.6052V95H19.24V110.06H0V118.426H19.24V376.116H0V384.482H19.24V399.542H27.6052V384.482H598.112V399.542H606.477V384.482H625.717V376.116H606.477V118.426H625.717ZM598.112 376.116H27.6052V118.426H598.112L598.112 376.116Z" fill="black"/>
<path d="M375.225 135.159H276.565V229.023H375.225V135.159Z" fill="#D0CDE1"/>
<path d="M364.014 146.373H287.776V204.681H364.014V146.373Z" fill="#1686E2"/>
<path d="M331.279 155.955H304.552V182.686H331.279V155.955Z" fill="#FAC722"/>
<path d="M314.784 162.64V195.099H347.238V162.64H314.784ZM345.83 193.691H316.191V164.048H345.83V193.691Z" fill="#3F3D56"/>
<path d="M329.169 210.469H287.701V212.652H329.169V210.469Z" fill="#F2F2F2"/>
<path d="M325.895 144.982C328.306 144.982 330.26 143.028 330.26 140.617C330.26 138.206 328.306 136.251 325.895 136.251C323.484 136.251 321.53 138.206 321.53 140.617C321.53 143.028 323.484 144.982 325.895 144.982Z" fill="#3F3D56"/>
<path d="M412.435 270.539H313.775V364.403H412.435V270.539Z" fill="#D0CDE1"/>
<path d="M401.223 281.752H324.986V340.06H401.223V281.752Z" fill="#1686E2"/>
<path d="M366.378 346.939H324.91V349.122H366.378V346.939Z" fill="#F2F2F2"/>
<path d="M366.378 353.488H324.91V355.671H366.378V353.488Z" fill="#F2F2F2"/>
<path d="M338.551 319.653C343.373 319.653 347.281 315.744 347.281 310.922C347.281 306.1 343.373 302.19 338.551 302.19C333.73 302.19 329.821 306.1 329.821 310.922C329.821 315.744 333.73 319.653 338.551 319.653Z" fill="#3F3D56"/>
<path d="M363.105 319.653C367.926 319.653 371.835 315.744 371.835 310.922C371.835 306.1 367.926 302.19 363.105 302.19C358.283 302.19 354.375 306.1 354.375 310.922C354.375 315.744 358.283 319.653 363.105 319.653Z" fill="#F2F2F2"/>
<path d="M387.658 319.653C392.48 319.653 396.388 315.744 396.388 310.922C396.388 306.1 392.48 302.19 387.658 302.19C382.837 302.19 378.928 306.1 378.928 310.922C378.928 315.744 382.837 319.653 387.658 319.653Z" fill="#FAC722"/>
<path d="M363.105 280.362C365.515 280.362 367.47 278.407 367.47 275.996C367.47 273.585 365.515 271.63 363.105 271.63C360.694 271.63 358.74 273.585 358.74 275.996C358.74 278.407 360.694 280.362 363.105 280.362Z" fill="#3F3D56"/>
<path d="M261.441 241.211H162.781V335.075H261.441V241.211Z" fill="#D0CDE1"/>
<path d="M250.23 252.424H173.992V310.733H250.23V252.424Z" fill="#1686E2"/>
<path d="M207.035 306.905C217.257 306.905 225.544 298.617 225.544 288.393C225.544 278.169 217.257 269.881 207.035 269.881C196.812 269.881 188.526 278.169 188.526 288.393C188.526 298.617 196.812 306.905 207.035 306.905Z" fill="#FAC722"/>
<path d="M212.49 302.672C207.901 302.672 203.414 301.311 199.598 298.76C195.781 296.21 192.807 292.585 191.051 288.344C189.294 284.103 188.835 279.436 189.73 274.934C190.625 270.432 192.836 266.296 196.081 263.05C199.326 259.804 203.461 257.594 207.963 256.698C212.465 255.802 217.131 256.262 221.371 258.019C225.611 259.775 229.236 262.75 231.786 266.567C234.336 270.384 235.697 274.871 235.697 279.462C235.69 285.616 233.243 291.515 228.892 295.866C224.541 300.218 218.643 302.665 212.49 302.672ZM212.49 257.096C208.067 257.096 203.744 258.408 200.066 260.865C196.389 263.323 193.523 266.816 191.83 270.903C190.138 274.99 189.695 279.487 190.558 283.825C191.42 288.164 193.55 292.149 196.678 295.277C199.805 298.405 203.79 300.535 208.128 301.398C212.466 302.261 216.962 301.818 221.048 300.126C225.134 298.433 228.627 295.566 231.084 291.888C233.541 288.21 234.853 283.886 234.853 279.462C234.846 273.532 232.488 267.847 228.296 263.654C224.103 259.461 218.419 257.103 212.49 257.096Z" fill="#3F3D56"/>
<path d="M215.385 323.069H173.917V325.252H215.385V323.069Z" fill="#F2F2F2"/>
<path d="M231.754 316.521H173.917V318.703H231.754V316.521Z" fill="#F2F2F2"/>
<path d="M212.111 251.034C214.522 251.034 216.476 249.08 216.476 246.668C216.476 244.257 214.522 242.303 212.111 242.303C209.7 242.303 207.746 244.257 207.746 246.668C207.746 249.08 209.7 251.034 212.111 251.034Z" fill="#3F3D56"/>
<path d="M153.003 133.486H54.3433V227.349H153.003V133.486Z" fill="#D0CDE1"/>
<path d="M141.792 144.699H65.5546V203.008H141.792V144.699Z" fill="#1686E2"/>
<path d="M111.874 190.346H95.473V195.207H111.874V190.346Z" fill="#FAC722"/>
<path d="M131.702 152.5H75.6451V154.583H131.702V152.5Z" fill="#3F3D56"/>
<path d="M131.702 159.097H75.6451V161.18H131.702V159.097Z" fill="#3F3D56"/>
<path d="M131.702 165.694H75.6451V167.777H131.702V165.694Z" fill="#3F3D56"/>
<path d="M131.702 172.291H75.6451V174.374H131.702V172.291Z" fill="#3F3D56"/>
<path d="M131.702 178.888H75.6451V180.971H131.702V178.888Z" fill="#3F3D56"/>
<path d="M106.947 208.795H65.4791V210.978H106.947V208.795Z" fill="#F2F2F2"/>
<path d="M123.316 214.252H65.4791V216.435H123.316V214.252Z" fill="#F2F2F2"/>
<path d="M103.673 143.309C106.084 143.309 108.038 141.355 108.038 138.943C108.038 136.532 106.084 134.578 103.673 134.578C101.263 134.578 99.3084 136.532 99.3084 138.943C99.3084 141.355 101.263 143.309 103.673 143.309Z" fill="#3F3D56"/>
<path d="M455.304 194.805L526.756 200.055L546.962 201.54L545.708 200.285L549.502 255.185L551.4 282.635C551.476 283.744 551.555 284.853 551.63 285.962C551.692 286.884 551.946 287.773 550.854 288C548.682 288.453 546.421 288.641 544.221 288.919C539.749 289.484 535.267 289.958 530.775 290.344C512.802 291.887 494.735 292 476.744 290.683C472.248 290.353 467.761 289.934 463.281 289.426C461.615 289.237 459.547 289.166 458.939 287.297C458.311 285.371 458.203 283.181 457.92 281.182C456.657 272.276 455.796 263.325 455.337 254.327C454.403 236.397 455.039 218.418 457.236 200.598C457.505 198.416 457.799 196.237 458.118 194.061C458.348 192.481 455.931 191.799 455.698 193.394C453.001 211.809 451.963 230.43 452.598 249.031C452.922 258.337 453.667 267.616 454.832 276.867C455.127 279.204 455.448 281.537 455.793 283.867C456.068 285.721 456.136 287.907 457.239 289.5C458.304 291.037 460.091 291.53 461.848 291.764C464.083 292.062 466.334 292.276 468.578 292.495C487.213 294.312 505.966 294.59 524.646 293.324C529.348 293.006 534.041 292.59 538.727 292.077C541.035 291.824 543.341 291.547 545.643 291.246C546.77 291.099 547.897 290.947 549.022 290.79C550.073 290.716 551.114 290.534 552.128 290.249C554.243 289.487 554.242 287.447 554.111 285.546L553.622 278.476L552.644 264.335L548.706 207.356L548.217 200.285C548.208 199.955 548.073 199.641 547.839 199.408C547.606 199.175 547.292 199.039 546.962 199.03L475.51 193.779L455.304 192.295C453.693 192.176 453.7 194.687 455.304 194.805V194.805Z" fill="#FAC722"/>
<path d="M485.924 224.436C486.285 223.478 485.378 225.542 485.833 224.629C485.954 224.386 486.068 224.141 486.196 223.902C486.452 223.426 486.735 222.966 487.044 222.524C487.352 222.083 487.82 221.912 486.909 222.68C487.098 222.487 487.274 222.282 487.438 222.067C487.863 221.601 488.316 221.162 488.795 220.751C489.139 220.456 489.79 220.204 488.625 220.858C488.856 220.729 489.069 220.535 489.289 220.387C489.741 220.084 490.206 219.803 490.686 219.545C490.926 219.416 491.168 219.292 491.414 219.175C491.831 218.975 492.526 218.907 491.213 219.243C491.777 219.099 492.322 218.832 492.886 218.672C493.366 218.536 493.85 218.421 494.34 218.328C494.778 218.246 495.572 218.308 494.078 218.342C494.345 218.336 494.618 218.285 494.886 218.267C495.425 218.23 495.965 218.222 496.505 218.242C496.775 218.253 497.043 218.279 497.312 218.296C498.207 218.349 495.958 218.047 497.312 218.305C497.843 218.406 498.368 218.538 498.883 218.701C499.133 218.809 499.39 218.899 499.652 218.971L498.957 218.672C499.128 218.746 499.296 218.823 499.464 218.904C499.961 219.145 500.444 219.415 500.91 219.713C501.142 219.862 501.364 220.023 501.591 220.177C502.306 220.663 500.634 219.36 501.647 220.248C501.991 220.549 502.32 220.866 502.636 221.197C502.826 221.396 503.01 221.6 503.189 221.808C503.49 222.159 503.72 222.8 503.092 221.652C503.667 222.703 504.386 223.656 504.927 224.74C505.389 225.664 504.506 223.592 504.857 224.565C504.952 224.827 505.053 225.086 505.143 225.351C505.321 225.88 505.475 226.416 505.605 226.96C505.734 227.504 505.798 228.06 505.917 228.605C505.588 227.105 505.829 227.973 505.861 228.38C505.891 228.751 505.909 229.123 505.915 229.495C505.922 229.959 505.911 230.423 505.881 230.887C505.863 231.159 505.802 231.448 505.806 231.719C505.787 230.311 505.908 231.012 505.82 231.485C505.719 232.033 505.589 232.575 505.431 233.109C505.351 233.376 505.265 233.641 505.171 233.904C505.087 234.137 504.999 234.368 504.907 234.598C505.176 233.969 505.198 233.91 504.971 234.419C503.585 237.191 501.858 239.776 500.495 242.558C497.113 249.495 495.976 257.313 497.241 264.926C497.589 266.188 498.417 267.265 499.548 267.926C500.72 268.598 502.11 268.779 503.415 268.432C506.244 267.516 507.357 265.046 506.921 262.257C506.767 261.274 507.001 263.133 506.901 262.143C506.858 261.719 506.815 261.296 506.785 260.87C506.725 260.02 506.7 259.168 506.712 258.315C506.721 257.584 506.756 256.854 506.817 256.126C506.819 255.698 506.863 255.272 506.949 254.854C506.948 254.856 506.787 255.863 506.896 255.284C506.942 255.045 506.974 254.802 507.017 254.563C507.305 252.943 507.722 251.349 508.263 249.796C508.383 249.451 508.515 249.11 508.642 248.768C508.977 247.863 508.293 249.494 508.698 248.618C509.06 247.838 509.434 247.067 509.845 246.311C511.573 243.136 513.527 240.162 514.786 236.747C515.746 234.069 516.126 231.217 515.9 228.38C515.434 222.526 512.952 216.585 508.326 212.795C505.936 210.804 503.109 209.407 500.077 208.716C497.044 208.025 493.892 208.06 490.875 208.818C487.565 209.618 484.501 211.217 481.951 213.474C479.4 215.731 477.441 218.579 476.245 221.768C475.317 224.23 477.273 227.378 479.75 227.943C482.605 228.593 484.931 227.073 485.924 224.437V224.436Z" fill="#FAC722"/>
<path d="M503.46 284.244C504.285 284.244 505.091 284 505.778 283.541C506.464 283.083 506.998 282.431 507.314 281.668C507.63 280.906 507.712 280.067 507.552 279.258C507.391 278.448 506.993 277.705 506.41 277.121C505.826 276.538 505.083 276.14 504.274 275.979C503.464 275.818 502.625 275.901 501.863 276.217C501.101 276.532 500.449 277.067 499.991 277.753C499.532 278.44 499.288 279.246 499.288 280.072C499.3 281.175 499.743 282.229 500.523 283.009C501.303 283.789 502.357 284.232 503.46 284.244Z" fill="#FAC722"/>
<path d="M51.0899 430.202H27.6674V453.628H51.0899V430.202Z" fill="#1686E2"/>
<path d="M65.3107 440.242H36.869V411.795H65.3107V440.242ZM38.1056 439.005H64.0741V413.032H38.1056V439.005Z" fill="#3F3D56"/>
</g>
<path d="M545.194 307.125L527.39 312.303C527.39 312.303 471.918 306.578 481.676 331.301C491.434 356.023 535.516 329.422 535.516 329.422L551.706 327.089L545.194 307.125Z" fill="#FDA57D"/>
<path d="M631.879 167.17C631.879 167.17 623.564 164.364 615.191 198.387C606.819 232.411 599.717 283.505 588.502 288.806C577.287 294.108 520.276 309.545 524.854 309.799L539.206 329.769C577.561 324.242 616.082 311.361 623.98 298.524C631.879 285.686 631.879 167.17 631.879 167.17Z" fill="#575A89"/>
<path d="M614.428 695.919L610.058 723.151H649.388L647.932 695.919H614.428Z" fill="#FAC722"/>
<path d="M741.496 726.075L738.638 764.099L764.354 767.023V723.15L741.496 726.075Z" fill="#FAC722"/>
<path d="M630.174 335.635L596.444 527.423L614.086 700.684L650.705 708.797V543.405L694.7 462.04L729.897 563.746L740.132 740L768.212 749.36L776.826 559.387C776.826 559.387 768.026 338.541 759.227 335.635C750.428 332.729 630.174 335.635 630.174 335.635Z" fill="#2F2E41"/>
<path d="M619.076 715.198C619.076 715.198 619.076 700.514 607.422 709.324C595.768 718.135 581.201 734.287 581.201 734.287C581.201 734.287 525.844 765.123 565.177 769.528C604.509 773.934 629.274 748.971 629.274 748.971L633.644 753.376C633.644 753.376 656.952 748.971 656.952 743.097C656.783 738.176 656.297 733.271 655.495 728.413C655.495 728.413 652.431 703.506 648.865 708.618C645.298 713.73 624.903 724.008 619.076 715.198Z" fill="#2F2E41"/>
<path d="M765.867 755.211C765.867 755.211 740.022 741.981 734.279 753.741C728.536 765.502 724.228 789.022 724.228 789.022C724.228 789.022 705.563 825.773 738.587 822.833C771.611 819.893 770.175 800.782 770.175 796.372C770.175 791.962 768.739 781.672 770.175 777.262C771.61 772.852 765.867 755.211 765.867 755.211Z" fill="#2F2E41"/>
<path d="M681.113 99.8486L679.643 151.286L732.587 147V99.8486H681.113Z" fill="#FDA57D"/>
<path d="M735.388 119.516C735.388 119.516 710.496 135.563 703.175 138.481C695.854 141.399 679.748 126.81 679.748 126.81C679.748 126.81 675.356 129.728 675.356 132.646C675.356 135.563 672.427 147.234 672.427 147.234L637.287 262.481L640.215 344.175C640.215 344.175 747.101 354.387 758.815 341.258C770.529 328.128 752.958 139.94 752.958 139.94L735.388 119.516Z" fill="#1686E2"/>
<path opacity="0.1" d="M728.049 149.774C728.049 149.774 688.34 165.678 675.104 151.364C675.104 151.364 694.223 156.136 728.049 149.774Z" fill="black"/>
<path d="M831.503 465.407C815.44 475.578 762.869 488.656 762.869 488.656C762.869 488.656 757.13 365.653 736.584 346.254C716.154 326.943 682.801 187.723 712.795 163.514C712.929 163.39 713.071 163.273 713.219 163.166L732.203 119.573C732.203 119.573 735.123 115.214 740.965 121.026C745.69 126.065 750.08 131.404 754.107 137.01L754.94 137.344L794.996 152.994L778.932 224.195C778.932 224.195 847.566 455.235 831.503 465.407Z" fill="#575A89"/>
<path opacity="0.1" d="M755.278 137.611L744.168 178.519L712.922 164.141C713.057 164.015 713.199 163.897 713.348 163.788L732.427 119.595C732.427 119.595 735.362 115.176 741.233 121.068C745.982 126.176 750.394 131.588 754.441 137.272L755.278 137.611Z" fill="black"/>
<path d="M679.643 125.568L675.299 175.176L675.067 177.437L641.996 494.707C641.996 494.707 613.037 484.494 602.901 472.822C592.766 461.149 626.068 331.294 626.068 331.294L628.964 167.88C628.964 167.88 654.651 149.657 665.149 139.648C667.61 137.313 669.232 135.431 669.507 134.322C670.955 128.486 679.643 125.568 679.643 125.568Z" fill="#575A89"/>
<path opacity="0.1" d="M679.643 125.568L675.234 176.21L674.999 178.518L653.927 175.465L664.933 139.941C667.431 137.558 669.077 135.637 669.356 134.505C670.826 128.547 679.643 125.568 679.643 125.568Z" fill="black"/>
<path d="M757.663 372.165L741.664 386.348C741.664 386.348 748.936 416.133 757.663 417.551C757.663 417.551 763.482 409.041 764.936 401.95C766.391 394.858 779.481 387.767 779.481 387.767L757.663 372.165Z" fill="#FDA57D"/>
<path d="M776.579 149.774L795.293 152.694C795.293 152.694 857.194 259.281 849.996 297.243C842.799 335.206 785.216 400.91 785.216 400.91L749.227 371.708L802.491 298.703L775.139 211.098L776.579 149.774Z" fill="#575A89"/>
<path d="M705.459 117.208C733.226 117.208 755.735 94.8514 755.735 67.2732C755.735 39.6949 733.226 17.3384 705.459 17.3384C677.692 17.3384 655.183 39.6949 655.183 67.2732C655.183 94.8514 677.692 117.208 705.459 117.208Z" fill="#72351C"/>
<path d="M705.459 123.449C730.928 123.449 751.574 102.8 751.574 77.3288C751.574 51.8573 730.928 31.2085 705.459 31.2085C679.99 31.2085 659.343 51.8573 659.343 77.3288C659.343 102.8 679.99 123.449 705.459 123.449Z" fill="#FDA57D"/>
<path d="M672.781 31.9571C674.08 27.8832 676.325 24.1846 679.329 21.1718C688.326 12.1677 703.072 10.2666 710.636 0C712.452 2.84899 711.047 7.2306 707.924 8.45523C715.162 8.4077 723.57 7.76542 727.666 1.72305C728.679 4.11038 729.002 6.73978 728.597 9.30558C728.193 11.8714 727.077 14.2682 725.38 16.2173C731.804 16.5126 738.658 20.9269 739.073 27.4244C739.349 31.7531 736.669 35.8516 733.156 38.3341C729.643 40.8165 725.393 41.9562 721.21 42.8901C708.998 45.6164 664.812 57.0434 672.781 31.9571Z" fill="#72351C"/>
<path d="M751.574 77.6763H750.351L726.56 98.7465C703.639 88.067 686.811 98.7465 686.811 98.7465L661.859 78.5422L659.343 78.8567C659.684 90.8998 664.773 102.326 673.511 110.669C682.248 119.012 693.933 123.601 706.043 123.446C718.153 123.291 729.716 118.404 738.234 109.841C746.753 101.277 751.545 89.7242 751.574 77.6763ZM705.38 106.828C696.407 106.828 689.132 105.019 689.132 102.787C689.132 100.556 696.407 98.7465 705.38 98.7465C714.353 98.7465 721.628 100.556 721.628 102.787C721.628 105.019 714.353 106.828 705.38 106.828Z" fill="#72351C"/>
<path d="M659.344 85.3049C661.641 85.3049 663.504 81.7341 663.504 77.3292C663.504 72.9244 661.641 69.3535 659.344 69.3535C657.046 69.3535 655.183 72.9244 655.183 77.3292C655.183 81.7341 657.046 85.3049 659.344 85.3049Z" fill="#FDA57D"/>
<path d="M751.575 85.3049C753.873 85.3049 755.736 81.7341 755.736 77.3292C755.736 72.9244 753.873 69.3535 751.575 69.3535C749.277 69.3535 747.414 72.9244 747.414 77.3292C747.414 81.7341 749.277 85.3049 751.575 85.3049Z" fill="#FDA57D"/>
<defs>
<clipPath id="clip0">
<rect width="721" height="459" fill="white" transform="translate(0 95)"/>
</clipPath>
</defs>
</svg>
